<?xml version="1.0" encoding="UTF-8"?>
<svg id="_레이어_1" xmlns="http://www.w3.org/2000/svg" version="1.1" viewBox="0 0 720 720">
  <!-- Generator: Adobe Illustrator 29.4.0, SVG Export Plug-In . SVG Version: 2.1.0 Build 152)  -->
  <defs>
    <style>
      .st0 {
        fill: #fff;
      }
    </style>
  </defs>
  <g>
    <path class="st0" d="M232,411.9v-1.3c0-.4-.2-.6-.6-.6h-16.8c-.4,0-.6.2-.6.6v1.3c0,.4.2.6.6.7l4,.6c1,.2,1.7.5,2,.9.3.5.3,1.3-.1,2.4l-8.5,24-11-30c-.2-.4-.5-.5-.8-.5h-3.4c-.4,0-.7.2-.8.5l-10.1,30-8.9-24.2c-.3-1-.4-1.7-.1-2.2.2-.5,1-.8,2.2-1l3.6-.5c.4,0,.6-.3.6-.7v-1.3c0-.4-.2-.6-.5-.6h-21.6c-.4,0-.6.2-.6.6v1.3c0,.4.2.7.5.8l2,.4c.6.2,1,.4,1.4.7.4.3.7.8,1,1.4l16,39.2c.2.4.4.5.8.5h3.4c.4,0,.6-.2.8-.5l9.9-28.9,10.9,28.9c.2.4.5.5.8.5h3.4c.4,0,.7-.2.8-.5l14.3-39.2c.2-.6.5-1,.8-1.3.4-.3.9-.6,1.6-.7l2.6-.5c.4,0,.6-.3.6-.7h-.2Z"/>
    <path class="st0" d="M242.6,452.7c3.7,1.9,7.9,2.9,12.7,2.9s9.2-1,12.8-2.9c3.7-1.9,6.5-4.6,8.5-8.1s3-7.6,3-12.2-1-8.6-3-12.1-4.9-6.2-8.5-8.1c-3.7-1.9-7.9-2.9-12.8-2.9s-9,1-12.6,2.9c-3.6,2-6.5,4.7-8.5,8.1-2,3.5-3.1,7.5-3.1,12.1s1,8.7,3,12.2,4.8,6.2,8.5,8.1h0ZM243.6,422.8c1.1-2.6,2.6-4.6,4.5-6,2-1.4,4.3-2.1,7-2.1s5.2.7,7.2,2.2,3.6,3.5,4.7,6.2,1.7,5.8,1.7,9.5-.5,6.8-1.6,9.4-2.6,4.6-4.7,6c-2,1.4-4.4,2.1-7.2,2.1s-5-.7-7-2.2-3.5-3.5-4.6-6.2-1.6-5.8-1.6-9.4.5-6.8,1.6-9.4h0Z"/>
    <path class="st0" d="M335.6,432.3c0-4.6-1-8.6-3-12.1s-4.9-6.2-8.5-8.1c-3.7-1.9-7.9-2.9-12.8-2.9s-9,1-12.6,2.9c-3.6,2-6.5,4.7-8.5,8.1-2,3.5-3.1,7.5-3.1,12.1s1,8.7,3,12.2,4.8,6.2,8.5,8.1,7.9,2.9,12.7,2.9,9.2-1,12.8-2.9c3.7-1.9,6.5-4.6,8.5-8.1s3-7.6,3-12.2ZM323.1,441.9c-1.1,2.6-2.6,4.6-4.7,6-2,1.4-4.4,2.1-7.2,2.1s-5-.7-7-2.2-3.5-3.5-4.6-6.2-1.6-5.8-1.6-9.4.5-6.8,1.6-9.4,2.6-4.6,4.5-6c2-1.4,4.3-2.1,7-2.1s5.2.7,7.2,2.2,3.6,3.5,4.7,6.2,1.7,5.8,1.7,9.5-.5,6.8-1.6,9.4h0Z"/>
    <path class="st0" d="M377.4,455c.5,0,.8-.2,1-.5s.3-.7.4-1.3l1.4-9.2c0-.4-.1-.7-.5-.8l-1.7-.5c-.4-.1-.7,0-1,.3l-3.4,5.5c-.3.5-.7.8-1.1,1.1-.4.3-1,.4-1.7.4h-11.7c-.6,0-1-.1-1.3-.4s-.4-.7-.4-1.5v-32.4c0-.7,0-1.2.3-1.4.2-.2.6-.4,1.1-.6l4.5-1.2c.4-.2.5-.4.5-.8v-1.3c0-.4-.2-.6-.6-.6h-21.6c-.4,0-.6.2-.6.6v1.3c0,.4.2.6.6.7l4.2,1.1c.7.2,1.1.4,1.3.7.2.3.2.7.2,1.3v33.3c0,.6,0,1-.2,1.3-.2.2-.6.5-1.3.7l-4.2,1.1c-.4.1-.6.4-.6.7v1.3c0,.4.2.6.6.6h30.2l3.4.2h2.3v.3Z"/>
    <path class="st0" d="M400.2,422.3v-6.5c0-.7,0-1.2.3-1.4.2-.2.6-.4,1.1-.6l4.5-1.2c.4-.2.5-.4.5-.8v-1.3c0-.4-.2-.6-.6-.6h-21.6c-.4,0-.6.2-.6.6v1.3c0,.4.2.6.6.7l4.2,1.1c.7.2,1.1.4,1.3.7.2.3.2.7.2,1.3v33.3c0,.6,0,1-.2,1.3-.2.2-.6.5-1.3.7l-4.2,1.1c-.4.1-.6.4-.6.7v1.3c0,.4.2.6.6.6h21.6c.4,0,.6-.2.6-.6v-1.3c0-.4-.2-.6-.5-.8l-4.5-1.2c-.5-.2-.9-.4-1.1-.6s-.3-.7-.3-1.4v-26.6.2Z"/>
    <path class="st0" d="M461.9,466.6h6.9c.4,0,.6-.2.6-.6v-1.6c0-.4-.2-.6-.6-.7-1-.2-2-.4-2.9-.7-1-.3-1.9-.5-2.9-.9-.5-.2-1-.4-1.5-.7-.5-.2-1-.6-1.6-1l-6.5-4.2c-1.1-.8-2.3-1.4-3.5-1.7-1.1-.3-2.4-.5-3.7-.7,1-.4,1.9-.8,2.8-1.3,3.7-1.9,6.5-4.6,8.5-8.1s3-7.6,3-12.2-1-8.6-3-12.1-4.9-6.2-8.5-8.1c-3.7-1.9-7.9-2.9-12.8-2.9s-9,1-12.6,2.9c-3.6,2-6.5,4.7-8.5,8.1-2,3.5-3.1,7.5-3.1,12.1s1,8.7,3,12.2,4.8,6.2,8.5,8.1c3.7,2,7.9,2.9,12.7,2.9s0,0,0,0h0c1.1,0,2,.1,2.8.4.8.2,1.6.6,2.3,1,.7.4,1.4.9,2,1.3l7.2,5.4c.8.6,1.4,1.1,1.9,1.4.4.3.9.5,1.3.7.4.1.9.2,1.4.3,2.3.3,4.6.5,6.9.6h0ZM436,450c-2.7,0-5-.7-7-2.2s-3.5-3.5-4.6-6.2-1.6-5.8-1.6-9.4.5-6.8,1.6-9.4,2.6-4.6,4.5-6c2-1.4,4.3-2.1,7-2.1s5.3.7,7.3,2.2,3.6,3.5,4.7,6.2,1.7,5.8,1.7,9.5-.5,6.8-1.6,9.4-2.6,4.6-4.7,6c-2,1.4-4.4,2.1-7.2,2.1h0Z"/>
    <path class="st0" d="M514.8,409.9h-18.7c-.4,0-.6.2-.6.6v1.3c0,.4.2.6.6.7l4.2,1.1c.7.2,1.1.4,1.3.7.2.3.2.7.2,1.3v23.5c0,3.4-.9,6.1-2.8,8s-4.5,2.9-7.8,2.9-5.8-.8-7.7-2.5c-1.9-1.7-2.8-4-2.8-6.9v-24.8c0-.7,0-1.2.3-1.4.2-.2.6-.4,1.1-.6l4.5-1.2c.4-.2.5-.4.5-.8v-1.3c0-.4-.2-.6-.6-.6h-21.6c-.4,0-.6.2-.6.6v1.3c0,.4.2.6.6.7l4.2,1.1c.7.2,1.1.4,1.3.7s.2.7.2,1.3v24c0,5.1,1.7,9,5,11.7,3.3,2.8,8,4.1,14,4.1s11-1.5,14.3-4.5c3.4-3,5-7.3,5-12.8v-22.4c0-.7,0-1.2.3-1.4.2-.2.6-.4,1.1-.6l4.5-1.2c.4-.2.5-.4.5-.8v-1.3c0-.4-.2-.6-.6-.6h0Z"/>
    <path class="st0" d="M559.1,443.2l-1.8-.5c-.4-.1-.7,0-.9.3l-3.7,5.6c-.4.5-.7.8-1.2,1.1s-1,.4-1.7.4h-13.5c-.6,0-1-.1-1.3-.4s-.4-.7-.4-1.5v-13.6h11.8c.6,0,1.1.1,1.5.3.4.2.8.6,1,1.3l1.1,3c.2.4.5.5.8.5h1.7c.4,0,.6-.2.6-.5v-13.5c0-.4-.2-.6-.6-.6h-1.6c-.4,0-.7.2-.9.5l-1.2,2.6c-.2.5-.6.9-1,1.2-.4.3-1,.4-1.7.4h-11.7v-15.1h15.2c.6,0,1,.1,1.5.4.4.2.8.7,1.2,1.3l2.7,5.1c.2.3.5.4.9.4l1.7-.2c.4,0,.6-.3.6-.7l-.2-8.1c0-1.1,0-1.8,0-2.3s-.3-.7-.5-.8c-.3,0-.7-.1-1.3,0l-4.9.5h-32.4c-.4,0-.6.2-.6.6v1.3c0,.4.2.6.6.7l4.2,1.1c.7.2,1.1.4,1.3.7.2.3.2.7.2,1.3v33.3c0,.6,0,1-.2,1.3-.2.2-.6.5-1.3.7l-4.2,1.1c-.4.1-.6.4-.6.7v1.3c0,.4.2.6.6.6h32.1l3.7.2h2.2c.5,0,.8-.2,1-.5s.3-.7.4-1.3l1.4-9.2c0-.4,0-.7-.5-.8v-.2Z"/>
    <polygon class="st0" points="281.7 365.9 301.9 365.9 360 278.2 388.7 321.5 370.1 349.7 346.2 313.6 326 344 340.6 365.9 379.4 365.9 380 365.1 380.2 365 380.1 364.9 477.3 218.1 457.1 218.1 408.8 291.1 380.1 247.7 399.7 218.1 379.6 218.1 370.1 232.5 360.5 218.1 320.3 218.1 320.3 218.1 349.9 263 331.3 291.1 283 218.1 242.8 218.1 242.7 218.1 311.2 321.5 281.7 365.9"/>
    <polygon class="st0" points="456.2 365.9 457.7 365 422.5 311.7 402.4 342.2 418.1 365.9 456.2 365.9"/>
  </g>
  <g>
    <path class="st0" d="M212.5,496.7l-5.9-14.8c-.2-.4-.4-.5-.8-.6l-1-.2c-.2,0-.2-.1-.2-.2v-.4q0-.2.2-.2h7.3q.2,0,.2.2v.3q0,.2-.2.2l-1.6.2c-.9.1-1,.4-.7,1.2l3.9,10.4,4-12.3c0-.2.1-.2.3-.2h.9c.1,0,.2,0,.3.2l4.4,12.3,3.7-10.4c.3-.9.1-1.1-.7-1.2l-1.6-.2c-.1,0-.2-.1-.2-.2v-.4q0-.2.2-.2h6.2q.2,0,.2.2v.3q0,.2-.2.2l-1.3.2c-.4,0-.6.3-.7.6l-5.4,14.8c0,.1-.1.2-.3.2h-.8q-.2,0-.3-.2l-4.4-11.8-3.9,11.8c0,.2-.1.2-.3.2h-.9c-.1,0-.2,0-.3-.2v.2Z"/>
    <path class="st0" d="M229.6,491.4c0-3.4,2.3-5.7,5.7-5.7s5.7,2.3,5.7,5.7-2.3,5.7-5.7,5.7-5.7-2.3-5.7-5.7ZM238.4,491.5c0-2.6-1.3-4.3-3.2-4.3s-3.1,1.5-3.1,4.1,1.3,4.3,3.2,4.3,3.1-1.5,3.1-4.1Z"/>
    <path class="st0" d="M242.7,491.4c0-3.4,2.3-5.7,5.7-5.7s5.7,2.3,5.7,5.7-2.3,5.7-5.7,5.7-5.7-2.3-5.7-5.7ZM251.6,491.5c0-2.6-1.3-4.3-3.2-4.3s-3.1,1.5-3.1,4.1,1.3,4.3,3.2,4.3,3.1-1.5,3.1-4.1Z"/>
    <path class="st0" d="M255.4,496.7v-.3q0-.2.2-.3l.8-.2c.4-.1.5-.2.5-.6v-13.7l-1.4-.2c-.2,0-.2-.1-.2-.3v-.3q0-.2.2-.2l3.3-.5c.4,0,.6,0,.6.4v14.8c0,.4,0,.5.5.6l1.2.2c.2,0,.2.1.2.2v.3q0,.2-.2.2h-5.4q-.2,0-.2-.2h-.1Z"/>
    <path class="st0" d="M263.1,501.2v-.3c-.2-.1-.2-.2,0-.3.8-.5,1.4-1.3,1.4-2.3s-.6-1.8-1.1-2.4c-.1-.1,0-.2,0-.4.4-.5,1.3-1.3,2-1.3s1.1,1.3,1.1,2.7c0,2.6-2,3.9-3.1,4.4-.1,0-.2,0-.3-.1h0Z"/>
    <path class="st0" d="M274.5,496.7v-.3q0-.2.2-.3l1.8-.4c.4,0,.5-.2.5-.6v-13c0-.4,0-.5-.5-.6l-1.8-.4c-.2,0-.2-.1-.2-.3v-.3q0-.2.2-.2h7.5c5.3,0,8.7,3.2,8.7,8.3s-3.4,8.3-8.7,8.3h-7.5q-.2,0-.2-.2ZM279.6,481.7v13.2c0,.4.2.5.6.5h2c3.7,0,5.9-2.6,5.9-6.9s-2.2-6.9-5.9-6.9h-2.6Z"/>
    <path class="st0" d="M292.7,491.3c0-3.7,2.5-5.7,5.5-5.7s4.7,1.9,4.7,4.9,0,.4,0,.6-.1.2-.3.2h-7.5c0,2.4,1.6,4.1,3.7,4.1s2-.3,2.8-.9c.1-.1.2,0,.3,0l.2.4v.4c-.9,1.1-2.4,1.7-4,1.7-3,0-5.4-2.1-5.4-5.8h0ZM295.3,490.2h5.5c0-1.8-1.2-3.1-2.7-3.1s-2.6,1.1-2.8,3.1Z"/>
    <path class="st0" d="M313.8,493.6c0,2.2-1.9,3.5-4.9,3.5s-2.9-.3-3.7-.7c-.1,0-.2-.2-.2-.3l-.2-3c0-.1,0-.2.2-.2h.4q.2,0,.3.1l.2.9c.4,1.2,1.2,1.8,2.9,1.8s2.6-.6,2.6-1.6-.6-1.1-2.7-1.9c-3.1-1.1-3.8-1.8-3.8-3.4s1.8-3.3,4.6-3.3,2.6.3,3.2.5c.1,0,.2.2.2.3v2.6q0,.2-.1.2h-.4q-.2,0-.2-.2v-.6c-.4-1.1-1.3-1.6-2.5-1.6s-2.3.6-2.3,1.6.4,1.1,2.8,1.9c2.8.9,3.7,1.7,3.7,3.2v.2Z"/>
    <path class="st0" d="M315.5,496.7v-.3q0-.2.2-.3l.8-.2c.4-.1.5-.2.5-.6v-8.1l-1.4-.3q-.2,0-.2-.2v-.3q0-.2.2-.2l3.3-.5c.4,0,.6,0,.6.4v9.2c0,.4,0,.5.5.6l1.2.2c.1,0,.2.1.2.2v.3q0,.2-.2.2h-5.4q-.2,0-.2-.2h-.1ZM316.7,482.5c0-.8.6-1.4,1.5-1.4s1.5.6,1.5,1.4-.7,1.4-1.5,1.4-1.5-.6-1.5-1.4Z"/>
    <path class="st0" d="M322.3,499.1c0-.9.9-1.8,2.1-2.3-.7-.4-1.1-1-1.1-1.8s.4-1.3,1.7-2.1c-1.4-.6-2.3-1.8-2.3-3.3,0-2.3,1.9-3.8,4.7-3.8s2,.1,3,.3l2.3-.6q.2,0,.3.2c.2.4.3,1,.3,1.5s0,.2-.2.2h-2.3c.7.6,1,1.4,1,2.3,0,2.3-1.8,3.8-4.5,3.8s-1.2,0-1.8-.2c-.4.4-.6.7-.6,1.1,0,.7.5,1,1.5,1h3.3c2,0,3,.9,3,2.6,0,2.5-2.3,4.1-5.9,4.1s-4.7-.9-4.7-2.8l.2-.2ZM327.6,500.5c2.2,0,3.4-.6,3.4-1.9s-.7-1.4-1.8-1.4h-2.7c-.5,0-.9,0-1.3-.1-.6.4-.8.9-.8,1.4,0,1.3,1.2,2,3.3,2h-.1ZM329.8,489.6c0-1.6-1-2.6-2.5-2.6s-2.2.9-2.2,2.3,1,2.7,2.4,2.7,2.3-.9,2.3-2.4h0Z"/>
    <path class="st0" d="M334.4,496.7v-.3q0-.2.2-.3l.8-.2c.4-.1.5-.2.5-.6v-8l-1.4-.3q-.2,0-.2-.2v-.3q0-.2.2-.2l3.1-.5c.4,0,.6,0,.6.4v2.2c1.2-1.6,3-2.7,4.8-2.7s3.3,1.2,3.3,3.7v6c0,.4,0,.5.5.6l1.2.2c.1,0,.2.1.2.2v.3q0,.2-.2.2h-5.4q-.2,0-.2-.2v-.3q0-.2.2-.3l.8-.2c.4-.1.5-.2.5-.6v-5.6c0-1.4-.7-2.1-2.1-2.1s-2.3.6-3.4,1.5v6.2c0,.4,0,.5.5.6l1.2.2c.1,0,.2.1.2.2v.3q0,.2-.2.2h-5.4q-.2,0-.2-.2h-.1Z"/>
    <path class="st0" d="M349.2,491.3c0-3.7,2.5-5.7,5.5-5.7s4.7,1.9,4.7,4.9,0,.4,0,.6-.1.2-.3.2h-7.5c0,2.4,1.6,4.1,3.7,4.1s2-.3,2.8-.9c.1-.1.2,0,.3,0l.2.4v.4c-.9,1.1-2.4,1.7-4,1.7-3,0-5.4-2.1-5.4-5.8h0ZM351.7,490.2h5.5c0-1.8-1.2-3.1-2.7-3.1s-2.6,1.1-2.8,3.1Z"/>
    <path class="st0" d="M369.5,486.7v-5.1l-1.4-.2c-.2,0-.2-.1-.2-.3v-.3q0-.2.2-.2l3.3-.5c.4,0,.6,0,.6.4v15l1.4.4c.1,0,.2.1.2.3v.3q0,.2-.2.2l-3.4.3c-.3,0-.4,0-.4-.3v-2.2c-1,1.6-2.6,2.5-4.1,2.5-2.7,0-4.5-2.1-4.5-5.5s2.1-5.9,5.3-5.9,2.3.4,3.2,1h0ZM369.5,493.7v-5.7c-.6-.5-1.5-.8-2.5-.8-2.2,0-3.4,1.6-3.4,4.2s1,3.8,2.8,3.8,2.2-.5,3.1-1.5Z"/>
    <path class="st0" d="M381.1,493.5v-6.4h-1.4q-.2,0-.2-.2v-.6q.2-.2.4-.2l1.2-.2v-2.2q0-.2.2-.3c.5-.1,1.4-.2,2-.2s.2,0,.2.2v2.5h3.8q.2,0,.2.1v.9c0,.1-.1.2-.3.2h-3.7v6.4c0,1.4.6,2,2.1,2s.9,0,1.5-.2q.2,0,.2.2v.4c0,.2,0,.3-.1.4-.8.5-2.1.8-3,.8-2.1,0-3.1-1.1-3.1-3.5h0Z"/>
    <path class="st0" d="M388.5,491.4c0-3.4,2.3-5.7,5.7-5.7s5.7,2.3,5.7,5.7-2.3,5.7-5.7,5.7-5.7-2.3-5.7-5.7ZM397.4,491.5c0-2.6-1.3-4.3-3.2-4.3s-3.1,1.5-3.1,4.1,1.3,4.3,3.2,4.3,3.1-1.5,3.1-4.1Z"/>
    <path class="st0" d="M410,480.5v7.5c1-1.4,2.5-2.3,4-2.3,2.7,0,4.5,2.1,4.5,5.5s-2.1,5.9-5.3,5.9-2.7-.5-3.7-1.5l-.9,1.3c0,.1-.2.2-.3.2h-.6q-.2,0-.2-.2v-15.2l-1.4-.2c-.2,0-.2-.1-.2-.3v-.3q0-.2.2-.2l3.3-.5c.4,0,.6,0,.6.4h0ZM410,489v5.8c.6.5,1.5.8,2.5.8,2.2,0,3.4-1.6,3.4-4.2s-1-3.7-2.8-3.7-2.2.5-3.1,1.5v-.2Z"/>
    <path class="st0" d="M420.2,491.3c0-3.7,2.5-5.7,5.5-5.7s4.7,1.9,4.7,4.9,0,.4,0,.6-.1.2-.3.2h-7.5c0,2.4,1.6,4.1,3.7,4.1s2-.3,2.8-.9c.1-.1.2,0,.3,0l.2.4v.4c-.9,1.1-2.4,1.7-4,1.7-3,0-5.4-2.1-5.4-5.8h0ZM422.7,490.2h5.5c0-1.8-1.2-3.1-2.7-3.1s-2.6,1.1-2.8,3.1Z"/>
    <path class="st0" d="M436.8,480.3h7.3q.2,0,.2.2v.4c0,.1,0,.2-.2.3l-1.9.4c-.4,0-.5.2-.5.6v9.5c0,2.4,1.7,3.9,4.5,3.9s4.5-1.7,4.5-4.4v-9c0-.4,0-.5-.5-.6l-1.8-.4c-.2,0-.2-.1-.2-.3v-.3q0-.2.2-.2h6.6q.2,0,.2.2v.4c0,.1,0,.2-.2.3l-1.9.4c-.4,0-.5.2-.5.6v8.8c0,3.9-2.5,6.2-6.8,6.2s-6.7-2.1-6.7-5.7v-9.4c0-.4,0-.5-.5-.6l-1.8-.4c-.2,0-.2-.1-.2-.3v-.3q0-.2.2-.2h0Z"/>
    <path class="st0" d="M455.5,496.7v-.3q0-.2.2-.3l.8-.2c.4-.1.5-.2.5-.6v-8l-1.4-.3q-.2,0-.2-.2v-.3q0-.2.2-.2l3.1-.5c.4,0,.6,0,.6.4v2.2c1.2-1.6,3-2.7,4.8-2.7s3.3,1.2,3.3,3.7v6c0,.4,0,.5.5.6l1.2.2c.1,0,.2.1.2.2v.3q0,.2-.2.2h-5.4q-.2,0-.2-.2v-.3q0-.2.2-.3l.8-.2c.4-.1.5-.2.5-.6v-5.6c0-1.4-.7-2.1-2.1-2.1s-2.3.6-3.4,1.5v6.2c0,.4,0,.5.5.6l1.2.2c.1,0,.2.1.2.2v.3q0,.2-.2.2h-5.4q-.2,0-.2-.2h-.1Z"/>
    <path class="st0" d="M470.3,496.7v-.3q0-.2.2-.3l.8-.2c.4-.1.5-.2.5-.6v-8.1l-1.4-.3q-.2,0-.2-.2v-.3q0-.2.2-.2l3.3-.5c.4,0,.6,0,.6.4v9.2c0,.4,0,.5.5.6l1.2.2c.1,0,.2.1.2.2v.3q0,.2-.2.2h-5.4q-.2,0-.2-.2h-.1ZM471.5,482.5c0-.8.6-1.4,1.5-1.4s1.5.6,1.5,1.4-.7,1.4-1.5,1.4-1.5-.6-1.5-1.4Z"/>
    <path class="st0" d="M484.4,501.2v-.3q0-.2.2-.3l.8-.2c.4-.1.5-.2.5-.6v-5.1c-1,1.4-2.5,2.3-4,2.3-2.7,0-4.5-2.1-4.5-5.5s2.1-6,5.3-6,2.7.5,3.7,1.5l.9-1.4c0-.1.2-.2.3-.2h.6c.1,0,.2,0,.2.2v14c0,.4,0,.5.5.6l1.2.2c.2,0,.2.1.2.2v.3q0,.2-.2.2h-5.4q-.2,0-.2-.2v.3ZM482.7,495.2c1.1,0,2.2-.5,3.1-1.4v-5.8c-.6-.5-1.5-.8-2.5-.8-2.2,0-3.4,1.6-3.4,4.2s1,3.7,2.8,3.7h0Z"/>
    <path class="st0" d="M491.9,493.4v-6.1l-1.4-.3q-.2,0-.2-.2v-.3q0-.2.2-.2l3.3-.5c.4,0,.6,0,.6.4v7c0,1.4.7,2.1,2,2.1s2.3-.5,3.4-1.4v-6.5l-1.4-.3q-.2,0-.2-.2v-.3q0-.2.2-.2l3.3-.5c.4,0,.6,0,.6.4v9.4l1.4.4c.2,0,.2.1.2.3v.3q0,.2-.2.2l-3.4.3c-.3,0-.4,0-.4-.3v-2.1c-1.1,1.4-2.8,2.4-4.7,2.4s-3.3-1.2-3.3-3.7h0Z"/>
    <path class="st0" d="M505.1,491.3c0-3.7,2.5-5.7,5.5-5.7s4.7,1.9,4.7,4.9,0,.4,0,.6,0,.2-.3.2h-7.5c0,2.4,1.6,4.1,3.7,4.1s2-.3,2.8-.9c0-.1.2,0,.3,0l.2.4v.4c-.9,1.1-2.4,1.7-4,1.7-3,0-5.4-2.1-5.4-5.8h0ZM507.6,490.2h5.5c0-1.8-1.2-3.1-2.7-3.1s-2.6,1.1-2.8,3.1h0Z"/>
  </g>
</svg>