<?xml version="1.0" encoding="UTF-8"?>
<svg id="_레이어_1" xmlns="http://www.w3.org/2000/svg" version="1.1" viewBox="0 0 433.4 331.4">
  <!-- Generator: Adobe Illustrator 29.4.0, SVG Export Plug-In . SVG Version: 2.1.0 Build 152)  -->
  <defs>
    <style>
      .st0 {
        fill: #fff;
      }
    </style>
  </defs>
  <g>
    <path class="st0" d="M88.7,217.6v-1.3c0-.4-.2-.6-.6-.6h-16.8c-.4,0-.6.2-.6.6v1.3c0,.4.2.6.6.7l4,.6c1,.2,1.7.5,2,.9.3.5.3,1.3-.1,2.4l-8.5,24-11-30c-.2-.4-.5-.5-.8-.5h-3.4c-.4,0-.7.2-.8.5l-10.1,30-8.9-24.2c-.3-1-.4-1.7-.1-2.2.2-.5,1-.8,2.2-1l3.6-.5c.4,0,.6-.3.6-.7v-1.3c0-.4-.2-.6-.5-.6h-21.6c-.4,0-.6.2-.6.6v1.3c0,.4.2.7.5.8l2,.4c.6.2,1,.4,1.4.7.4.3.7.8,1,1.4l16,39.2c.2.4.4.5.8.5h3.4c.4,0,.6-.2.8-.5l9.9-28.9,10.9,28.9c.2.4.5.5.8.5h3.4c.4,0,.7-.2.8-.5l14.3-39.2c.2-.6.5-1,.8-1.3.4-.3.9-.6,1.6-.7l2.6-.5c.4,0,.6-.3.6-.7h-.2,0Z"/>
    <path class="st0" d="M99.3,258.4c3.7,1.9,7.9,2.9,12.7,2.9s9.2-1,12.8-2.9c3.7-1.9,6.5-4.6,8.5-8.1s3-7.6,3-12.2-1-8.6-3-12.1-4.9-6.2-8.5-8.1c-3.7-1.9-7.9-2.9-12.8-2.9s-9,1-12.6,2.9c-3.6,2-6.5,4.7-8.5,8.1-2,3.5-3.1,7.5-3.1,12.1s1,8.7,3,12.2,4.8,6.2,8.5,8.1h0ZM100.3,228.5c1.1-2.6,2.6-4.6,4.5-6,2-1.4,4.3-2.1,7-2.1s5.2.7,7.2,2.2,3.6,3.5,4.7,6.2,1.7,5.8,1.7,9.5-.5,6.8-1.6,9.4-2.6,4.6-4.7,6c-2,1.4-4.4,2.1-7.2,2.1s-5-.7-7-2.2-3.5-3.5-4.6-6.2-1.6-5.8-1.6-9.4.5-6.8,1.6-9.4h0Z"/>
    <path class="st0" d="M192.3,238c0-4.6-1-8.6-3-12.1s-4.9-6.2-8.5-8.1c-3.7-1.9-7.9-2.9-12.8-2.9s-9,1-12.6,2.9c-3.6,2-6.5,4.7-8.5,8.1-2,3.5-3.1,7.5-3.1,12.1s1,8.7,3,12.2,4.8,6.2,8.5,8.1,7.9,2.9,12.7,2.9,9.2-1,12.8-2.9c3.7-1.9,6.5-4.6,8.5-8.1s3-7.6,3-12.2ZM179.8,247.6c-1.1,2.6-2.6,4.6-4.7,6-2,1.4-4.4,2.1-7.2,2.1s-5-.7-7-2.2-3.5-3.5-4.6-6.2-1.6-5.8-1.6-9.4.5-6.8,1.6-9.4,2.6-4.6,4.5-6c2-1.4,4.3-2.1,7-2.1s5.2.7,7.2,2.2,3.6,3.5,4.7,6.2,1.7,5.8,1.7,9.5-.5,6.8-1.6,9.4h0Z"/>
    <path class="st0" d="M234.1,260.7c.5,0,.8-.2,1-.5s.3-.7.4-1.3l1.4-9.2c0-.4-.1-.7-.5-.8l-1.7-.5c-.4-.1-.7,0-1,.3l-3.4,5.5c-.3.5-.7.8-1.1,1.1-.4.3-1,.4-1.7.4h-11.7c-.6,0-1-.1-1.3-.4s-.4-.7-.4-1.5v-32.4c0-.7,0-1.2.3-1.4.2-.2.6-.4,1.1-.6l4.5-1.2c.4-.2.5-.4.5-.8v-1.3c0-.4-.2-.6-.6-.6h-21.6c-.4,0-.6.2-.6.6v1.3c0,.4.2.6.6.7l4.2,1.1c.7.2,1.1.4,1.3.7.2.3.2.7.2,1.3v33.3c0,.6,0,1-.2,1.3-.2.2-.6.5-1.3.7l-4.2,1.1c-.4.1-.6.4-.6.7v1.3c0,.4.2.6.6.6h30.2l3.4.2h2.3v.3h0Z"/>
    <path class="st0" d="M256.9,228v-6.5c0-.7,0-1.2.3-1.4.2-.2.6-.4,1.1-.6l4.5-1.2c.4-.2.5-.4.5-.8v-1.3c0-.4-.2-.6-.6-.6h-21.6c-.4,0-.6.2-.6.6v1.3c0,.4.2.6.6.7l4.2,1.1c.7.2,1.1.4,1.3.7.2.3.2.7.2,1.3v33.3c0,.6,0,1-.2,1.3-.2.2-.6.5-1.3.7l-4.2,1.1c-.4.1-.6.4-.6.7v1.3c0,.4.2.6.6.6h21.6c.4,0,.6-.2.6-.6v-1.3c0-.4-.2-.6-.5-.8l-4.5-1.2c-.5-.2-.9-.4-1.1-.6s-.3-.7-.3-1.4v-26.6.2h0Z"/>
    <path class="st0" d="M318.6,272.3h6.9c.4,0,.6-.2.6-.6v-1.6c0-.4-.2-.6-.6-.7-1-.2-2-.4-2.9-.7-1-.3-1.9-.5-2.9-.9-.5-.2-1-.4-1.5-.7-.5-.2-1-.6-1.6-1l-6.5-4.2c-1.1-.8-2.3-1.4-3.5-1.7-1.1-.3-2.4-.5-3.7-.7,1-.4,1.9-.8,2.8-1.3,3.7-1.9,6.5-4.6,8.5-8.1s3-7.6,3-12.2-1-8.6-3-12.1-4.9-6.2-8.5-8.1c-3.7-1.9-7.9-2.9-12.8-2.9s-9,1-12.6,2.9c-3.6,2-6.5,4.7-8.5,8.1-2,3.5-3.1,7.5-3.1,12.1s1,8.7,3,12.2,4.8,6.2,8.5,8.1c3.7,2,7.9,2.9,12.7,2.9s0,0,0,0h0c1.1,0,2,.1,2.8.4.8.2,1.6.6,2.3,1,.7.4,1.4.9,2,1.3l7.2,5.4c.8.6,1.4,1.1,1.9,1.4.4.3.9.5,1.3.7.4.1.9.2,1.4.3,2.3.3,4.6.5,6.9.6h0ZM292.7,255.7c-2.7,0-5-.7-7-2.2s-3.5-3.5-4.6-6.2-1.6-5.8-1.6-9.4.5-6.8,1.6-9.4,2.6-4.6,4.5-6c2-1.4,4.3-2.1,7-2.1s5.3.7,7.3,2.2,3.6,3.5,4.7,6.2,1.7,5.8,1.7,9.5-.5,6.8-1.6,9.4-2.6,4.6-4.7,6c-2,1.4-4.4,2.1-7.2,2.1h0Z"/>
    <path class="st0" d="M371.5,215.6h-18.7c-.4,0-.6.2-.6.6v1.3c0,.4.2.6.6.7l4.2,1.1c.7.2,1.1.4,1.3.7.2.3.2.7.2,1.3v23.5c0,3.4-.9,6.1-2.8,8s-4.5,2.9-7.8,2.9-5.8-.8-7.7-2.5c-1.9-1.7-2.8-4-2.8-6.9v-24.8c0-.7,0-1.2.3-1.4.2-.2.6-.4,1.1-.6l4.5-1.2c.4-.2.5-.4.5-.8v-1.3c0-.4-.2-.6-.6-.6h-21.6c-.4,0-.6.2-.6.6v1.3c0,.4.2.6.6.7l4.2,1.1c.7.2,1.1.4,1.3.7s.2.7.2,1.3v24c0,5.1,1.7,9,5,11.7,3.3,2.8,8,4.1,14,4.1s11-1.5,14.3-4.5c3.4-3,5-7.3,5-12.8v-22.4c0-.7,0-1.2.3-1.4.2-.2.6-.4,1.1-.6l4.5-1.2c.4-.2.5-.4.5-.8v-1.3c0-.4-.2-.6-.6-.6h0Z"/>
    <path class="st0" d="M415.8,248.9l-1.8-.5c-.4-.1-.7,0-.9.3l-3.7,5.6c-.4.5-.7.8-1.2,1.1s-1,.4-1.7.4h-13.5c-.6,0-1-.1-1.3-.4s-.4-.7-.4-1.5v-13.6h11.8c.6,0,1.1.1,1.5.3.4.2.8.6,1,1.3l1.1,3c.2.4.5.5.8.5h1.7c.4,0,.6-.2.6-.5v-13.5c0-.4-.2-.6-.6-.6h-1.6c-.4,0-.7.2-.9.5l-1.2,2.6c-.2.5-.6.9-1,1.2-.4.3-1,.4-1.7.4h-11.7v-15.1h15.2c.6,0,1,.1,1.5.4.4.2.8.7,1.2,1.3l2.7,5.1c.2.3.5.4.9.4l1.7-.2c.4,0,.6-.3.6-.7l-.2-8.1v-2.3c0-.5-.3-.7-.5-.8-.3,0-.7-.1-1.3,0l-4.9.5h-32.4c-.4,0-.6.2-.6.6v1.3c0,.4.2.6.6.7l4.2,1.1c.7.2,1.1.4,1.3.7.2.3.2.7.2,1.3v33.3c0,.6,0,1-.2,1.3-.2.2-.6.5-1.3.7l-4.2,1.1c-.4.1-.6.4-.6.7v1.3c0,.4.2.6.6.6h32.1l3.7.2h2.2c.5,0,.8-.2,1-.5s.3-.7.4-1.3l1.4-9.2c0-.4,0-.7-.5-.8v-.2h0Z"/>
    <polygon class="st0" points="138.4 171.6 158.6 171.6 216.7 83.9 245.4 127.2 226.8 155.4 202.9 119.3 182.7 149.7 197.3 171.6 236.1 171.6 236.7 170.8 236.9 170.7 236.8 170.6 334 23.8 313.8 23.8 265.5 96.8 236.8 53.4 256.4 23.8 236.3 23.8 226.8 38.2 217.2 23.8 177 23.8 177 23.8 206.6 68.7 188 96.8 139.7 23.8 99.5 23.8 99.4 23.8 167.9 127.2 138.4 171.6"/>
    <polygon class="st0" points="312.9 171.6 314.4 170.7 279.2 117.4 259.1 147.9 274.8 171.6 312.9 171.6"/>
  </g>
  <g>
    <path class="st0" d="M69.2,302.4l-5.9-14.8c-.2-.4-.4-.5-.8-.6l-1-.2c-.2,0-.2-.1-.2-.2v-.4c0-.1,0-.2.2-.2h7.3c.1,0,.2,0,.2.2v.3c0,.1,0,.2-.2.2l-1.6.2c-.9.1-1,.4-.7,1.2l3.9,10.4,4-12.3c0-.2.1-.2.3-.2h.9c.1,0,.2,0,.3.2l4.4,12.3,3.7-10.4c.3-.9.1-1.1-.7-1.2l-1.6-.2c-.1,0-.2-.1-.2-.2v-.4c0-.1,0-.2.2-.2h6.2c.1,0,.2,0,.2.2v.3c0,.1,0,.2-.2.2l-1.3.2c-.4,0-.6.3-.7.6l-5.4,14.8c0,.1-.1.2-.3.2h-.8c-.1,0-.2,0-.3-.2l-4.4-11.8-3.9,11.8c0,.2-.1.2-.3.2h-.9c-.1,0-.2,0-.3-.2v.2h0Z"/>
    <path class="st0" d="M86.3,297.1c0-3.4,2.3-5.7,5.7-5.7s5.7,2.3,5.7,5.7-2.3,5.7-5.7,5.7-5.7-2.3-5.7-5.7ZM95.1,297.2c0-2.6-1.3-4.3-3.2-4.3s-3.1,1.5-3.1,4.1,1.3,4.3,3.2,4.3,3.1-1.5,3.1-4.1Z"/>
    <path class="st0" d="M99.4,297.1c0-3.4,2.3-5.7,5.7-5.7s5.7,2.3,5.7,5.7-2.3,5.7-5.7,5.7-5.7-2.3-5.7-5.7ZM108.3,297.2c0-2.6-1.3-4.3-3.2-4.3s-3.1,1.5-3.1,4.1,1.3,4.3,3.2,4.3,3.1-1.5,3.1-4.1Z"/>
    <path class="st0" d="M112.1,302.4v-.3c0-.1,0-.2.2-.3l.8-.2c.4-.1.5-.2.5-.6v-13.7l-1.4-.2c-.2,0-.2-.1-.2-.3v-.3c0-.1,0-.2.2-.2l3.3-.5c.4,0,.6,0,.6.4v14.8c0,.4,0,.5.5.6l1.2.2c.2,0,.2.1.2.2v.3c0,.1,0,.2-.2.2h-5.4c-.1,0-.2,0-.2-.2h-.1Z"/>
    <path class="st0" d="M119.8,306.9v-.3c-.2-.1-.2-.2,0-.3.8-.5,1.4-1.3,1.4-2.3s-.6-1.8-1.1-2.4c-.1-.1,0-.2,0-.4.4-.5,1.3-1.3,2-1.3s1.1,1.3,1.1,2.7c0,2.6-2,3.9-3.1,4.4-.1,0-.2,0-.3-.1h0Z"/>
    <path class="st0" d="M131.2,302.4v-.3c0-.1,0-.2.2-.3l1.8-.4c.4,0,.5-.2.5-.6v-13c0-.4,0-.5-.5-.6l-1.8-.4c-.2,0-.2-.1-.2-.3v-.3c0-.1,0-.2.2-.2h7.5c5.3,0,8.7,3.2,8.7,8.3s-3.4,8.3-8.7,8.3h-7.5c-.1,0-.2,0-.2-.2ZM136.3,287.4v13.2c0,.4.2.5.6.5h2c3.7,0,5.9-2.6,5.9-6.9s-2.2-6.9-5.9-6.9h-2.6Z"/>
    <path class="st0" d="M149.4,297c0-3.7,2.5-5.7,5.5-5.7s4.7,1.9,4.7,4.9,0,.4,0,.6-.1.2-.3.2h-7.5c0,2.4,1.6,4.1,3.7,4.1s2-.3,2.8-.9c.1-.1.2,0,.3,0l.2.4v.4c-.9,1.1-2.4,1.7-4,1.7-3,0-5.4-2.1-5.4-5.8h0ZM152,295.9h5.5c0-1.8-1.2-3.1-2.7-3.1s-2.6,1.1-2.8,3.1Z"/>
    <path class="st0" d="M170.5,299.3c0,2.2-1.9,3.5-4.9,3.5s-2.9-.3-3.7-.7c-.1,0-.2-.2-.2-.3l-.2-3c0-.1,0-.2.2-.2h.4c.1,0,.2,0,.3.1l.2.9c.4,1.2,1.2,1.8,2.9,1.8s2.6-.6,2.6-1.6-.6-1.1-2.7-1.9c-3.1-1.1-3.8-1.8-3.8-3.4s1.8-3.3,4.6-3.3,2.6.3,3.2.5c.1,0,.2.2.2.3v2.6c0,.1,0,.2-.1.2h-.4c-.1,0-.2,0-.2-.2v-.6c-.4-1.1-1.3-1.6-2.5-1.6s-2.3.6-2.3,1.6.4,1.1,2.8,1.9c2.8.9,3.7,1.7,3.7,3.2v.2h-.1Z"/>
    <path class="st0" d="M172.2,302.4v-.3c0-.1,0-.2.2-.3l.8-.2c.4-.1.5-.2.5-.6v-8.1l-1.4-.3c-.1,0-.2,0-.2-.2v-.3c0-.1,0-.2.2-.2l3.3-.5c.4,0,.6,0,.6.4v9.2c0,.4,0,.5.5.6l1.2.2c.1,0,.2.1.2.2v.3c0,.1,0,.2-.2.2h-5.4c-.1,0-.2,0-.2-.2h-.1ZM173.4,288.2c0-.8.6-1.4,1.5-1.4s1.5.6,1.5,1.4-.7,1.4-1.5,1.4-1.5-.6-1.5-1.4Z"/>
    <path class="st0" d="M179,304.8c0-.9.9-1.8,2.1-2.3-.7-.4-1.1-1-1.1-1.8s.4-1.3,1.7-2.1c-1.4-.6-2.3-1.8-2.3-3.3,0-2.3,1.9-3.8,4.7-3.8s2,.1,3,.3l2.3-.6c.1,0,.2,0,.3.2.2.4.3,1,.3,1.5s0,.2-.2.2h-2.3c.7.6,1,1.4,1,2.3,0,2.3-1.8,3.8-4.5,3.8s-1.2,0-1.8-.2c-.4.4-.6.7-.6,1.1,0,.7.5,1,1.5,1h3.3c2,0,3,.9,3,2.6,0,2.5-2.3,4.1-5.9,4.1s-4.7-.9-4.7-2.8l.2-.2h0ZM184.3,306.2c2.2,0,3.4-.6,3.4-1.9s-.7-1.4-1.8-1.4h-2.7c-.5,0-.9,0-1.3-.1-.6.4-.8.9-.8,1.4,0,1.3,1.2,2,3.3,2h-.1ZM186.5,295.3c0-1.6-1-2.6-2.5-2.6s-2.2.9-2.2,2.3,1,2.7,2.4,2.7,2.3-.9,2.3-2.4h0Z"/>
    <path class="st0" d="M191.1,302.4v-.3c0-.1,0-.2.2-.3l.8-.2c.4-.1.5-.2.5-.6v-8l-1.4-.3c-.1,0-.2,0-.2-.2v-.3c0-.1,0-.2.2-.2l3.1-.5c.4,0,.6,0,.6.4v2.2c1.2-1.6,3-2.7,4.8-2.7s3.3,1.2,3.3,3.7v6c0,.4,0,.5.5.6l1.2.2c.1,0,.2.1.2.2v.3c0,.1,0,.2-.2.2h-5.4c-.1,0-.2,0-.2-.2v-.3c0-.1,0-.2.2-.3l.8-.2c.4-.1.5-.2.5-.6v-5.6c0-1.4-.7-2.1-2.1-2.1s-2.3.6-3.4,1.5v6.2c0,.4,0,.5.5.6l1.2.2c.1,0,.2.1.2.2v.3c0,.1,0,.2-.2.2h-5.4c-.1,0-.2,0-.2-.2h-.1Z"/>
    <path class="st0" d="M205.9,297c0-3.7,2.5-5.7,5.5-5.7s4.7,1.9,4.7,4.9,0,.4,0,.6-.1.2-.3.2h-7.5c0,2.4,1.6,4.1,3.7,4.1s2-.3,2.8-.9c.1-.1.2,0,.3,0l.2.4v.4c-.9,1.1-2.4,1.7-4,1.7-3,0-5.4-2.1-5.4-5.8h0ZM208.4,295.9h5.5c0-1.8-1.2-3.1-2.7-3.1s-2.6,1.1-2.8,3.1Z"/>
    <path class="st0" d="M226.2,292.4v-5.1l-1.4-.2c-.2,0-.2-.1-.2-.3v-.3c0-.1,0-.2.2-.2l3.3-.5c.4,0,.6,0,.6.4v15l1.4.4c.1,0,.2.1.2.3v.3c0,.1,0,.2-.2.2l-3.4.3c-.3,0-.4,0-.4-.3v-2.2c-1,1.6-2.6,2.5-4.1,2.5-2.7,0-4.5-2.1-4.5-5.5s2.1-5.9,5.3-5.9,2.3.4,3.2,1h0ZM226.2,299.4v-5.7c-.6-.5-1.5-.8-2.5-.8-2.2,0-3.4,1.6-3.4,4.2s1,3.8,2.8,3.8,2.2-.5,3.1-1.5Z"/>
    <path class="st0" d="M237.8,299.2v-6.4h-1.4c-.1,0-.2,0-.2-.2v-.6c.1-.1.3-.2.4-.2l1.2-.2v-2.2c0-.1,0-.2.2-.3.5-.1,1.4-.2,2-.2s.2,0,.2.2v2.5h3.8c.1,0,.2,0,.2.1v.9c0,.1-.1.2-.3.2h-3.7v6.4c0,1.4.6,2,2.1,2s.9,0,1.5-.2c.1,0,.2,0,.2.2v.4c0,.2,0,.3-.1.4-.8.5-2.1.8-3,.8-2.1,0-3.1-1.1-3.1-3.5h0Z"/>
    <path class="st0" d="M245.2,297.1c0-3.4,2.3-5.7,5.7-5.7s5.7,2.3,5.7,5.7-2.3,5.7-5.7,5.7-5.7-2.3-5.7-5.7ZM254.1,297.2c0-2.6-1.3-4.3-3.2-4.3s-3.1,1.5-3.1,4.1,1.3,4.3,3.2,4.3,3.1-1.5,3.1-4.1Z"/>
    <path class="st0" d="M266.7,286.2v7.5c1-1.4,2.5-2.3,4-2.3,2.7,0,4.5,2.1,4.5,5.5s-2.1,5.9-5.3,5.9-2.7-.5-3.7-1.5l-.9,1.3c0,.1-.2.2-.3.2h-.6c-.1,0-.2,0-.2-.2v-15.2l-1.4-.2c-.2,0-.2-.1-.2-.3v-.3c0-.1,0-.2.2-.2l3.3-.5c.4,0,.6,0,.6.4h0ZM266.7,294.7v5.8c.6.5,1.5.8,2.5.8,2.2,0,3.4-1.6,3.4-4.2s-1-3.7-2.8-3.7-2.2.5-3.1,1.5v-.2h0Z"/>
    <path class="st0" d="M276.9,297c0-3.7,2.5-5.7,5.5-5.7s4.7,1.9,4.7,4.9,0,.4,0,.6-.1.2-.3.2h-7.5c0,2.4,1.6,4.1,3.7,4.1s2-.3,2.8-.9c.1-.1.2,0,.3,0l.2.4v.4c-.9,1.1-2.4,1.7-4,1.7-3,0-5.4-2.1-5.4-5.8h0ZM279.4,295.9h5.5c0-1.8-1.2-3.1-2.7-3.1s-2.6,1.1-2.8,3.1Z"/>
    <path class="st0" d="M293.5,286h7.3c.1,0,.2,0,.2.2v.4c0,.1,0,.2-.2.3l-1.9.4c-.4,0-.5.2-.5.6v9.5c0,2.4,1.7,3.9,4.5,3.9s4.5-1.7,4.5-4.4v-9c0-.4,0-.5-.5-.6l-1.8-.4c-.2,0-.2-.1-.2-.3v-.3c0-.1,0-.2.2-.2h6.6c.1,0,.2,0,.2.2v.4c0,.1,0,.2-.2.3l-1.9.4c-.4,0-.5.2-.5.6v8.8c0,3.9-2.5,6.2-6.8,6.2s-6.7-2.1-6.7-5.7v-9.4c0-.4,0-.5-.5-.6l-1.8-.4c-.2,0-.2-.1-.2-.3v-.3c0-.1,0-.2.2-.2h0Z"/>
    <path class="st0" d="M312.2,302.4v-.3c0-.1,0-.2.2-.3l.8-.2c.4-.1.5-.2.5-.6v-8l-1.4-.3c-.1,0-.2,0-.2-.2v-.3c0-.1,0-.2.2-.2l3.1-.5c.4,0,.6,0,.6.4v2.2c1.2-1.6,3-2.7,4.8-2.7s3.3,1.2,3.3,3.7v6c0,.4,0,.5.5.6l1.2.2c.1,0,.2.1.2.2v.3c0,.1,0,.2-.2.2h-5.4c-.1,0-.2,0-.2-.2v-.3c0-.1,0-.2.2-.3l.8-.2c.4-.1.5-.2.5-.6v-5.6c0-1.4-.7-2.1-2.1-2.1s-2.3.6-3.4,1.5v6.2c0,.4,0,.5.5.6l1.2.2c.1,0,.2.1.2.2v.3c0,.1,0,.2-.2.2h-5.4c-.1,0-.2,0-.2-.2h-.1Z"/>
    <path class="st0" d="M327,302.4v-.3c0-.1,0-.2.2-.3l.8-.2c.4-.1.5-.2.5-.6v-8.1l-1.4-.3c-.1,0-.2,0-.2-.2v-.3c0-.1,0-.2.2-.2l3.3-.5c.4,0,.6,0,.6.4v9.2c0,.4,0,.5.5.6l1.2.2c.1,0,.2.1.2.2v.3c0,.1,0,.2-.2.2h-5.4c-.1,0-.2,0-.2-.2h-.1ZM328.2,288.2c0-.8.6-1.4,1.5-1.4s1.5.6,1.5,1.4-.7,1.4-1.5,1.4-1.5-.6-1.5-1.4Z"/>
    <path class="st0" d="M341.1,306.9v-.3c0-.1,0-.2.2-.3l.8-.2c.4-.1.5-.2.5-.6v-5.1c-1,1.4-2.5,2.3-4,2.3-2.7,0-4.5-2.1-4.5-5.5s2.1-6,5.3-6,2.7.5,3.7,1.5l.9-1.4c0-.1.2-.2.3-.2h.6c.1,0,.2,0,.2.2v14c0,.4,0,.5.5.6l1.2.2c.2,0,.2.1.2.2v.3c0,.1,0,.2-.2.2h-5.4c-.1,0-.2,0-.2-.2v.3h-.1ZM339.4,300.9c1.1,0,2.2-.5,3.1-1.4v-5.8c-.6-.5-1.5-.8-2.5-.8-2.2,0-3.4,1.6-3.4,4.2s1,3.7,2.8,3.7h0Z"/>
    <path class="st0" d="M348.6,299.1v-6.1l-1.4-.3c-.1,0-.2,0-.2-.2v-.3c0-.1,0-.2.2-.2l3.3-.5c.4,0,.6,0,.6.4v7c0,1.4.7,2.1,2,2.1s2.3-.5,3.4-1.4v-6.5l-1.4-.3c-.1,0-.2,0-.2-.2v-.3c0-.1,0-.2.2-.2l3.3-.5c.4,0,.6,0,.6.4v9.4l1.4.4c.2,0,.2.1.2.3v.3c0,.1,0,.2-.2.2l-3.4.3c-.3,0-.4,0-.4-.3v-2.1c-1.1,1.4-2.8,2.4-4.7,2.4s-3.3-1.2-3.3-3.7h0Z"/>
    <path class="st0" d="M361.8,297c0-3.7,2.5-5.7,5.5-5.7s4.7,1.9,4.7,4.9,0,.4,0,.6,0,.2-.3.2h-7.5c0,2.4,1.6,4.1,3.7,4.1s2-.3,2.8-.9c0-.1.2,0,.3,0l.2.4v.4c-.9,1.1-2.4,1.7-4,1.7-3,0-5.4-2.1-5.4-5.8h0ZM364.3,295.9h5.5c0-1.8-1.2-3.1-2.7-3.1s-2.6,1.1-2.8,3.1h0Z"/>
  </g>
</svg>