<?xml version="1.0" encoding="UTF-8"?>
<svg id="_레이어_1" xmlns="http://www.w3.org/2000/svg" version="1.1" viewBox="0 0 433.4 331.4">
  <!-- Generator: Adobe Illustrator 29.4.0, SVG Export Plug-In . SVG Version: 2.1.0 Build 152)  -->
  <defs>
    <style>
      .st0 {
        fill: #fff;
      }
    </style>
  </defs>
  <g>
    <path class="st0" d="M69.2,302.4l-5.9-14.8c-.2-.4-.4-.5-.8-.6l-1-.2c-.2,0-.2-.1-.2-.2v-.4c0-.1,0-.2.2-.2h7.3c0,0,.2,0,.2.2v.3c0,.1,0,.2-.2.2l-1.6.2c-.9.1-1,.4-.7,1.2l3.9,10.4,4-12.3c0-.2,0-.2.3-.2h.9c0,0,.2,0,.3.2l4.4,12.3,3.7-10.4c.3-.9,0-1.1-.7-1.2l-1.6-.2c0,0-.2-.1-.2-.2v-.4c0-.1,0-.2.2-.2h6.2c0,0,.2,0,.2.2v.3c0,.1,0,.2-.2.2l-1.3.2c-.4,0-.6.3-.7.6l-5.4,14.8c0,.1,0,.2-.3.2h-.8c0,0-.2,0-.3-.2l-4.4-11.8-3.9,11.8c0,.2,0,.2-.3.2h-.9c0,0-.2,0-.3-.2v.2h0Z"/>
    <path class="st0" d="M86.3,297.1c0-3.4,2.3-5.7,5.7-5.7s5.7,2.3,5.7,5.7-2.3,5.7-5.7,5.7-5.7-2.3-5.7-5.7ZM95.1,297.2c0-2.6-1.3-4.3-3.2-4.3s-3.1,1.5-3.1,4.1,1.3,4.3,3.2,4.3,3.1-1.5,3.1-4.1Z"/>
    <path class="st0" d="M99.4,297.1c0-3.4,2.3-5.7,5.7-5.7s5.7,2.3,5.7,5.7-2.3,5.7-5.7,5.7-5.7-2.3-5.7-5.7ZM108.3,297.2c0-2.6-1.3-4.3-3.2-4.3s-3.1,1.5-3.1,4.1,1.3,4.3,3.2,4.3,3.1-1.5,3.1-4.1Z"/>
    <path class="st0" d="M112.1,302.4v-.3c0-.1,0-.2.2-.3l.8-.2c.4-.1.5-.2.5-.6v-13.7l-1.4-.2c-.2,0-.2-.1-.2-.3v-.3c0-.1,0-.2.2-.2l3.3-.5c.4,0,.6,0,.6.4v14.8c0,.4,0,.5.5.6l1.2.2c.2,0,.2.1.2.2v.3c0,.1,0,.2-.2.2h-5.4c0,0-.2,0-.2-.2h0Z"/>
    <path class="st0" d="M119.8,306.9v-.3c-.2-.1-.2-.2,0-.3.8-.5,1.4-1.3,1.4-2.3s-.6-1.8-1.1-2.4c0-.1,0-.2,0-.4.4-.5,1.3-1.3,2-1.3s1.1,1.3,1.1,2.7c0,2.6-2,3.9-3.1,4.4,0,0-.2,0-.3-.1h0Z"/>
    <path class="st0" d="M131.2,302.4v-.3c0-.1,0-.2.2-.3l1.8-.4c.4,0,.5-.2.5-.6v-13c0-.4,0-.5-.5-.6l-1.8-.4c-.2,0-.2-.1-.2-.3v-.3c0-.1,0-.2.2-.2h7.5c5.3,0,8.7,3.2,8.7,8.3s-3.4,8.3-8.7,8.3h-7.5c-.1,0-.2,0-.2-.2ZM136.3,287.4v13.2c0,.4.2.5.6.5h2c3.7,0,5.9-2.6,5.9-6.9s-2.2-6.9-5.9-6.9h-2.6Z"/>
    <path class="st0" d="M149.4,297c0-3.7,2.5-5.7,5.5-5.7s4.7,1.9,4.7,4.9,0,.4,0,.6-.1.2-.3.2h-7.5c0,2.4,1.6,4.1,3.7,4.1s2-.3,2.8-.9c.1-.1.2,0,.3,0l.2.4v.4c-.9,1.1-2.4,1.7-4,1.7-3,0-5.4-2.1-5.4-5.8h0ZM152,295.9h5.5c0-1.8-1.2-3.1-2.7-3.1s-2.6,1.1-2.8,3.1Z"/>
    <path class="st0" d="M170.5,299.3c0,2.2-1.9,3.5-4.9,3.5s-2.9-.3-3.7-.7c-.1,0-.2-.2-.2-.3l-.2-3c0-.1,0-.2.2-.2h.4c.1,0,.2,0,.3.1l.2.9c.4,1.2,1.2,1.8,2.9,1.8s2.6-.6,2.6-1.6-.6-1.1-2.7-1.9c-3.1-1.1-3.8-1.8-3.8-3.4s1.8-3.3,4.6-3.3,2.6.3,3.2.5c.1,0,.2.2.2.3v2.6c0,.1,0,.2-.1.2h-.4c-.1,0-.2,0-.2-.2v-.6c-.4-1.1-1.3-1.6-2.5-1.6s-2.3.6-2.3,1.6.4,1.1,2.8,1.9c2.8.9,3.7,1.7,3.7,3.2v.2h-.1Z"/>
    <path class="st0" d="M172.2,302.4v-.3c0-.1,0-.2.2-.3l.8-.2c.4-.1.5-.2.5-.6v-8.1l-1.4-.3c-.1,0-.2,0-.2-.2v-.3c0-.1,0-.2.2-.2l3.3-.5c.4,0,.6,0,.6.4v9.2c0,.4,0,.5.5.6l1.2.2c.1,0,.2.1.2.2v.3c0,.1,0,.2-.2.2h-5.4c-.1,0-.2,0-.2-.2h-.1ZM173.4,288.2c0-.8.6-1.4,1.5-1.4s1.5.6,1.5,1.4-.7,1.4-1.5,1.4-1.5-.6-1.5-1.4Z"/>
    <path class="st0" d="M179,304.8c0-.9.9-1.8,2.1-2.3-.7-.4-1.1-1-1.1-1.8s.4-1.3,1.7-2.1c-1.4-.6-2.3-1.8-2.3-3.3,0-2.3,1.9-3.8,4.7-3.8s2,.1,3,.3l2.3-.6c.1,0,.2,0,.3.2.2.4.3,1,.3,1.5s0,.2-.2.2h-2.3c.7.6,1,1.4,1,2.3,0,2.3-1.8,3.8-4.5,3.8s-1.2,0-1.8-.2c-.4.4-.6.7-.6,1.1,0,.7.5,1,1.5,1h3.3c2,0,3,.9,3,2.6,0,2.5-2.3,4.1-5.9,4.1s-4.7-.9-4.7-2.8l.2-.2h0ZM184.3,306.2c2.2,0,3.4-.6,3.4-1.9s-.7-1.4-1.8-1.4h-2.7c-.5,0-.9,0-1.3-.1-.6.4-.8.9-.8,1.4,0,1.3,1.2,2,3.3,2h-.1,0ZM186.5,295.3c0-1.6-1-2.6-2.5-2.6s-2.2.9-2.2,2.3,1,2.7,2.4,2.7,2.3-.9,2.3-2.4h0Z"/>
    <path class="st0" d="M191.1,302.4v-.3c0-.1,0-.2.2-.3l.8-.2c.4-.1.5-.2.5-.6v-8l-1.4-.3c-.1,0-.2,0-.2-.2v-.3c0-.1,0-.2.2-.2l3.1-.5c.4,0,.6,0,.6.4v2.2c1.2-1.6,3-2.7,4.8-2.7s3.3,1.2,3.3,3.7v6c0,.4,0,.5.5.6l1.2.2c.1,0,.2.1.2.2v.3c0,.1,0,.2-.2.2h-5.4c-.1,0-.2,0-.2-.2v-.3c0-.1,0-.2.2-.3l.8-.2c.4-.1.5-.2.5-.6v-5.6c0-1.4-.7-2.1-2.1-2.1s-2.3.6-3.4,1.5v6.2c0,.4,0,.5.5.6l1.2.2c.1,0,.2.1.2.2v.3c0,.1,0,.2-.2.2h-5.4c-.1,0-.2,0-.2-.2h-.1Z"/>
    <path class="st0" d="M205.9,297c0-3.7,2.5-5.7,5.5-5.7s4.7,1.9,4.7,4.9,0,.4,0,.6-.1.2-.3.2h-7.5c0,2.4,1.6,4.1,3.7,4.1s2-.3,2.8-.9c.1-.1.2,0,.3,0l.2.4v.4c-.9,1.1-2.4,1.7-4,1.7-3,0-5.4-2.1-5.4-5.8h0ZM208.4,295.9h5.5c0-1.8-1.2-3.1-2.7-3.1s-2.6,1.1-2.8,3.1Z"/>
    <path class="st0" d="M226.2,292.4v-5.1l-1.4-.2c-.2,0-.2-.1-.2-.3v-.3c0-.1,0-.2.2-.2l3.3-.5c.4,0,.6,0,.6.4v15l1.4.4c.1,0,.2.1.2.3v.3c0,.1,0,.2-.2.2l-3.4.3c-.3,0-.4,0-.4-.3v-2.2c-1,1.6-2.6,2.5-4.1,2.5-2.7,0-4.5-2.1-4.5-5.5s2.1-5.9,5.3-5.9,2.3.4,3.2,1h0ZM226.2,299.4v-5.7c-.6-.5-1.5-.8-2.5-.8-2.2,0-3.4,1.6-3.4,4.2s1,3.8,2.8,3.8,2.2-.5,3.1-1.5h0Z"/>
    <path class="st0" d="M237.8,299.2v-6.4h-1.4c-.1,0-.2,0-.2-.2v-.6c.1-.1.3-.2.4-.2l1.2-.2v-2.2c0-.1,0-.2.2-.3.5-.1,1.4-.2,2-.2s.2,0,.2.2v2.5h3.8c.1,0,.2,0,.2.1v.9c0,.1-.1.2-.3.2h-3.7v6.4c0,1.4.6,2,2.1,2s.9,0,1.5-.2c.1,0,.2,0,.2.2v.4c0,.2,0,.3-.1.4-.8.5-2.1.8-3,.8-2.1,0-3.1-1.1-3.1-3.5h0Z"/>
    <path class="st0" d="M245.2,297.1c0-3.4,2.3-5.7,5.7-5.7s5.7,2.3,5.7,5.7-2.3,5.7-5.7,5.7-5.7-2.3-5.7-5.7h0ZM254.1,297.2c0-2.6-1.3-4.3-3.2-4.3s-3.1,1.5-3.1,4.1,1.3,4.3,3.2,4.3,3.1-1.5,3.1-4.1Z"/>
    <path class="st0" d="M266.7,286.2v7.5c1-1.4,2.5-2.3,4-2.3,2.7,0,4.5,2.1,4.5,5.5s-2.1,5.9-5.3,5.9-2.7-.5-3.7-1.5l-.9,1.3c0,.1-.2.2-.3.2h-.6c-.1,0-.2,0-.2-.2v-15.2l-1.4-.2c-.2,0-.2-.1-.2-.3v-.3c0-.1,0-.2.2-.2l3.3-.5c.4,0,.6,0,.6.4h0ZM266.7,294.7v5.8c.6.5,1.5.8,2.5.8,2.2,0,3.4-1.6,3.4-4.2s-1-3.7-2.8-3.7-2.2.5-3.1,1.5v-.2h0Z"/>
    <path class="st0" d="M276.9,297c0-3.7,2.5-5.7,5.5-5.7s4.7,1.9,4.7,4.9,0,.4,0,.6-.1.2-.3.2h-7.5c0,2.4,1.6,4.1,3.7,4.1s2-.3,2.8-.9c.1-.1.2,0,.3,0l.2.4v.4c-.9,1.1-2.4,1.7-4,1.7-3,0-5.4-2.1-5.4-5.8h0ZM279.4,295.9h5.5c0-1.8-1.2-3.1-2.7-3.1s-2.6,1.1-2.8,3.1Z"/>
    <path class="st0" d="M293.5,286h7.3c.1,0,.2,0,.2.2v.4c0,.1,0,.2-.2.3l-1.9.4c-.4,0-.5.2-.5.6v9.5c0,2.4,1.7,3.9,4.5,3.9s4.5-1.7,4.5-4.4v-9c0-.4,0-.5-.5-.6l-1.8-.4c-.2,0-.2-.1-.2-.3v-.3c0-.1,0-.2.2-.2h6.6c.1,0,.2,0,.2.2v.4c0,.1,0,.2-.2.3l-1.9.4c-.4,0-.5.2-.5.6v8.8c0,3.9-2.5,6.2-6.8,6.2s-6.7-2.1-6.7-5.7v-9.4c0-.4,0-.5-.5-.6l-1.8-.4c-.2,0-.2-.1-.2-.3v-.3c0-.1,0-.2.2-.2h0Z"/>
    <path class="st0" d="M312.2,302.4v-.3c0-.1,0-.2.2-.3l.8-.2c.4-.1.5-.2.5-.6v-8l-1.4-.3c-.1,0-.2,0-.2-.2v-.3c0-.1,0-.2.2-.2l3.1-.5c.4,0,.6,0,.6.4v2.2c1.2-1.6,3-2.7,4.8-2.7s3.3,1.2,3.3,3.7v6c0,.4,0,.5.5.6l1.2.2c.1,0,.2.1.2.2v.3c0,.1,0,.2-.2.2h-5.4c-.1,0-.2,0-.2-.2v-.3c0-.1,0-.2.2-.3l.8-.2c.4-.1.5-.2.5-.6v-5.6c0-1.4-.7-2.1-2.1-2.1s-2.3.6-3.4,1.5v6.2c0,.4,0,.5.5.6l1.2.2c.1,0,.2.1.2.2v.3c0,.1,0,.2-.2.2h-5.4c-.1,0-.2,0-.2-.2h-.1Z"/>
    <path class="st0" d="M327,302.4v-.3c0-.1,0-.2.2-.3l.8-.2c.4-.1.5-.2.5-.6v-8.1l-1.4-.3c-.1,0-.2,0-.2-.2v-.3c0-.1,0-.2.2-.2l3.3-.5c.4,0,.6,0,.6.4v9.2c0,.4,0,.5.5.6l1.2.2c.1,0,.2.1.2.2v.3c0,.1,0,.2-.2.2h-5.4c-.1,0-.2,0-.2-.2h-.1ZM328.2,288.2c0-.8.6-1.4,1.5-1.4s1.5.6,1.5,1.4-.7,1.4-1.5,1.4-1.5-.6-1.5-1.4Z"/>
    <path class="st0" d="M341.1,306.9v-.3c0-.1,0-.2.2-.3l.8-.2c.4-.1.5-.2.5-.6v-5.1c-1,1.4-2.5,2.3-4,2.3-2.7,0-4.5-2.1-4.5-5.5s2.1-6,5.3-6,2.7.5,3.7,1.5l.9-1.4c0-.1.2-.2.3-.2h.6c.1,0,.2,0,.2.2v14c0,.4,0,.5.5.6l1.2.2c.2,0,.2.1.2.2v.3c0,.1,0,.2-.2.2h-5.4c-.1,0-.2,0-.2-.2v.3h-.1ZM339.4,300.9c1.1,0,2.2-.5,3.1-1.4v-5.8c-.6-.5-1.5-.8-2.5-.8-2.2,0-3.4,1.6-3.4,4.2s1,3.7,2.8,3.7h0Z"/>
    <path class="st0" d="M348.6,299.1v-6.1l-1.4-.3c-.1,0-.2,0-.2-.2v-.3c0-.1,0-.2.2-.2l3.3-.5c.4,0,.6,0,.6.4v7c0,1.4.7,2.1,2,2.1s2.3-.5,3.4-1.4v-6.5l-1.4-.3c-.1,0-.2,0-.2-.2v-.3c0-.1,0-.2.2-.2l3.3-.5c.4,0,.6,0,.6.4v9.4l1.4.4c.2,0,.2.1.2.3v.3c0,.1,0,.2-.2.2l-3.4.3c-.3,0-.4,0-.4-.3v-2.1c-1.1,1.4-2.8,2.4-4.7,2.4s-3.3-1.2-3.3-3.7h0Z"/>
    <path class="st0" d="M361.8,297c0-3.7,2.5-5.7,5.5-5.7s4.7,1.9,4.7,4.9,0,.4,0,.6,0,.2-.3.2h-7.5c0,2.4,1.6,4.1,3.7,4.1s2-.3,2.8-.9c0-.1.2,0,.3,0l.2.4v.4c-.9,1.1-2.4,1.7-4,1.7-3,0-5.4-2.1-5.4-5.8h0ZM364.3,295.9h5.5c0-1.8-1.2-3.1-2.7-3.1s-2.6,1.1-2.8,3.1h0Z"/>
  </g>
  <g>
    <g>
      <path class="st0" d="M21.8,248.2c-.3,0-.5-.1-.6-.4l-12.9-31.5c-.2-.5-.4-.9-.8-1.1-.3-.2-.7-.4-1.2-.6l-1.6-.3c-.3,0-.4-.3-.4-.6v-1c0-.3.2-.5.5-.5h17.3c.3,0,.4.2.4.5v1.1c0,.3-.2.5-.5.5l-2.9.4c-1,.2-1.5.4-1.7.8s-.2,1,0,1.8l9,24.6-4.6,2.8,10.8-32c0-.3.3-.4.6-.4h2.7c.3,0,.5.1.7.4l10.4,28.4-4.4,3.5,9.6-27.1c.3-.9.4-1.6,0-1.9-.3-.4-.8-.6-1.6-.7l-3.2-.5c-.3,0-.5-.3-.5-.6v-1c0-.3.2-.5.5-.5h13.5c.3,0,.5.2.5.5v1.1c0,.3-.2.5-.5.5l-2.1.4c-.5,0-1,.3-1.2.6-.3.3-.5.6-.7,1.1l-11.5,31.5c0,.3-.3.4-.6.4h-2.7c-.3,0-.5-.1-.7-.4l-9.5-25.3,3.1-4.6-10.2,29.9c-.1.3-.3.4-.6.4h-2.7Z"/>
      <path class="st0" d="M80.4,248.9c-3.8,0-7.2-.8-10.1-2.3-2.9-1.6-5.2-3.7-6.8-6.5-1.6-2.8-2.5-6-2.5-9.7s.8-7,2.5-9.8,3.9-5,6.8-6.5c2.9-1.6,6.3-2.4,10.1-2.4s7.3.8,10.3,2.3c2.9,1.6,5.2,3.7,6.8,6.5s2.5,6,2.5,9.8-.8,7-2.4,9.8c-1.6,2.8-3.9,5-6.8,6.5-2.9,1.6-6.4,2.3-10.3,2.3ZM80.4,244.4c2.2,0,4.2-.6,5.8-1.7,1.6-1.1,2.9-2.8,3.7-4.9.9-2.1,1.3-4.6,1.3-7.5s-.4-5.5-1.3-7.6c-.9-2.1-2.2-3.8-3.8-4.9-1.6-1.2-3.6-1.8-5.8-1.8s-4.1.6-5.6,1.7c-1.6,1.1-2.8,2.7-3.6,4.8-.8,2.1-1.3,4.6-1.3,7.6s.4,5.4,1.3,7.6c.9,2.1,2.1,3.8,3.7,5,1.6,1.2,3.5,1.8,5.6,1.8Z"/>
      <path class="st0" d="M125.3,248.9c-3.8,0-7.2-.8-10.1-2.3-2.9-1.6-5.2-3.7-6.8-6.5-1.6-2.8-2.5-6-2.5-9.7s.8-7,2.5-9.8,3.9-5,6.8-6.5c2.9-1.6,6.3-2.4,10.1-2.4s7.3.8,10.3,2.3c2.9,1.6,5.2,3.7,6.8,6.5s2.5,6,2.5,9.8-.8,7-2.4,9.8c-1.6,2.8-3.9,5-6.8,6.5-2.9,1.6-6.4,2.3-10.3,2.3ZM125.3,244.4c2.2,0,4.2-.6,5.8-1.7,1.6-1.1,2.9-2.8,3.7-4.9.9-2.1,1.3-4.6,1.3-7.5s-.4-5.5-1.3-7.6c-.9-2.1-2.2-3.8-3.8-4.9-1.6-1.2-3.6-1.8-5.8-1.8s-4.1.6-5.6,1.7c-1.6,1.1-2.8,2.7-3.6,4.8-.8,2.1-1.3,4.6-1.3,7.6s.4,5.4,1.3,7.6c.9,2.1,2.1,3.8,3.7,5,1.6,1.2,3.5,1.8,5.6,1.8Z"/>
      <path class="st0" d="M149.2,212.7c0-.3.2-.5.5-.5h17.3c.3,0,.5.2.5.5v1c0,.3-.1.5-.4.6l-3.6,1c-.4.1-.7.3-.9.5-.2.2-.2.6-.2,1.2v5.2h-8.1v-5.3c0-.5,0-.8-.2-1-.1-.2-.5-.4-1-.6l-3.4-.9c-.3,0-.5-.3-.5-.6v-1.1ZM149.7,248.2c-.3,0-.5-.2-.5-.5v-1.1c0-.3.2-.5.5-.6l3.4-.9c.5-.2.9-.4,1-.6.1-.2.2-.5.2-1v-5.3h8.1v9.9h-12.7ZM154.2,248.2v-36h8.1v30.7c0,.6.1,1,.3,1.2.2.2.6.3,1.1.3h9.4c.6,0,1-.1,1.4-.3.3-.2.6-.5.9-.9l2.7-4.4c.2-.3.4-.3.8-.2l1.4.4c.3,0,.4.3.4.6l-1.1,7.4c0,.4-.2.8-.3,1-.1.2-.4.4-.8.4s-1,0-1.8,0h-2.7c0-.1-19.7-.1-19.7-.1Z"/>
      <path class="st0" d="M196,212.7c0-.3.2-.5.5-.5h12.7v9.9h-8.1v-5.3c0-.5,0-.8-.2-1-.1-.2-.5-.4-1-.6l-3.4-.9c-.3,0-.5-.3-.5-.6v-1.1ZM196.4,248.2c-.3,0-.5-.2-.5-.5v-1.1c0-.3.2-.5.5-.6l3.4-.9c.5-.2.9-.4,1-.6.1-.2.2-.5.2-1v-5.3h8.1v9.9h-12.7ZM201,248.2v-36h8.1v30.7c0,.6.1,1,.3,1.2.2.2.6.3,1.1.3h2.6c2.5,0,4.3-.5,5.5-1.5,1.2-1,1.8-2.6,1.8-4.7s-.6-3.7-1.8-4.7c-1.2-1-3.1-1.5-5.7-1.5h-3.7v-3.8h3.7c2,0,3.4-.6,4.5-1.7,1-1.1,1.5-2.7,1.5-4.8s-.5-3.3-1.4-4.3c-.9-.9-2.4-1.4-4.3-1.4h-4v-3.8h4c4.6,0,8,.8,10.3,2.3s3.4,3.8,3.4,6.9-.4,2.7-1.1,3.8c-.7,1.1-1.6,2-2.6,2.7-1.1.7-2.1,1.2-3.3,1.6-1.1.3-2.1.5-3,.5v-.7c.7,0,1.6,0,2.6.3,1,.2,2.1.5,3.2.9,1.1.4,2.2,1,3.1,1.7,1,.7,1.7,1.6,2.4,2.6.6,1,.9,2.2.9,3.7,0,3.3-1.3,5.8-3.9,7.4-2.6,1.6-6.6,2.4-12.1,2.4h-12.1Z"/>
      <path class="st0" d="M231.2,212.7c0-.3.2-.5.5-.5h17.3c.3,0,.5.2.5.5v1c0,.3-.1.5-.4.6l-3.6,1c-.4.1-.7.3-.9.5-.2.2-.2.6-.2,1.2v5.2h-8.1v-5.3c0-.5,0-.8-.2-1-.1-.2-.5-.4-1-.6l-3.4-.9c-.3,0-.5-.3-.5-.6v-1.1ZM267,235c0,4.4-1.3,7.8-4,10.3-2.7,2.4-6.5,3.6-11.5,3.6s-8.6-1.1-11.2-3.3c-2.7-2.2-4-5.3-4-9.4v-23.9h8.1v24.6c0,2.3.7,4.2,2.2,5.5,1.5,1.4,3.5,2,6.2,2s4.7-.8,6.3-2.3c1.5-1.6,2.3-3.7,2.3-6.4v-23.4h5.7v22.7ZM256.3,212.7c0-.3.2-.5.5-.5h15c.3,0,.5.2.5.5v1c0,.3-.1.5-.4.6l-3.6,1c-.4.1-.8.3-.9.5-.2.2-.2.6-.2,1.2v5.2h-5.7v-5.3c0-.5,0-.8-.2-1-.1-.2-.5-.4-1-.6l-3.4-.9c-.3,0-.5-.3-.5-.6v-1.1Z"/>
      <path class="st0" d="M305.5,211.8c.4,0,.8-.1,1,0,.2,0,.4.3.5.6,0,.4.1,1,.2,1.8l.2,8.1c0,.3-.2.4-.5.5l-1.4.2c-.3,0-.5,0-.6-.4l-2-5.1c-.3-.5-.5-.9-.8-1.1-.3-.2-.7-.3-1.2-.3h-20.5c-.6,0-1,.1-1.3.3-.3.2-.5.6-.7,1l-2.1,5.1c0,.3-.3.4-.7.4l-1.3-.2c-.3,0-.5-.2-.5-.5l.2-9.1c0-.5,0-.8.2-1.1,0-.2.3-.3.7-.3s1,0,1.8.2h1.2c1.3.2,2.5.2,3.7.2,1.2,0,2.5,0,3.9,0,1.4,0,3.1,0,5,0s3.6,0,5,0c1.5,0,2.8,0,4,0,1.2,0,2.4,0,3.6,0l2.3-.3ZM281.9,248.2c-.3,0-.5-.2-.5-.5v-1.1c0-.3.2-.5.5-.6l3.4-.9c.5-.2.8-.4,1-.6.1-.2.2-.5.2-1v-5.3h8.1v5.2c0,.6,0,1,.3,1.2.2.2.5.4.9.5l3.6,1c.3.1.4.3.4.6v1c0,.3-.2.5-.5.5h-17.3ZM286.4,248.2v-36h8.1v36h-8.1Z"/>
      <path class="st0" d="M341.6,211.8c.4,0,.8-.1,1,0,.2,0,.4.3.5.6,0,.4.1,1,.2,1.8l.2,8.1c0,.3-.2.4-.5.5l-1.4.2c-.3,0-.5,0-.6-.4l-2-5.1c-.3-.5-.5-.9-.8-1.1-.3-.2-.7-.3-1.2-.3h-20.5c-.6,0-1,.1-1.3.3-.3.2-.5.6-.7,1l-2.1,5.1c0,.3-.3.4-.7.4l-1.3-.2c-.3,0-.5-.2-.5-.5l.2-9.1c0-.5,0-.8.2-1.1,0-.2.3-.3.7-.3s1,0,1.8.2h1.2c1.3.2,2.5.2,3.7.2,1.2,0,2.5,0,3.9,0,1.4,0,3.1,0,5,0s3.6,0,5,0c1.5,0,2.8,0,4,0,1.2,0,2.4,0,3.6,0l2.3-.3ZM318.1,248.2c-.3,0-.5-.2-.5-.5v-1.1c0-.3.2-.5.5-.6l3.4-.9c.5-.2.8-.4,1-.6.1-.2.2-.5.2-1v-5.3h8.1v5.2c0,.6,0,1,.3,1.2.2.2.5.4.9.5l3.6,1c.3.1.4.3.4.6v1c0,.3-.2.5-.5.5h-17.3ZM322.6,248.2v-36h8.1v36h-8.1Z"/>
      <path class="st0" d="M365.7,248.9c-3.8,0-7.2-.8-10.1-2.3-2.9-1.6-5.2-3.7-6.8-6.5-1.6-2.8-2.5-6-2.5-9.7s.8-7,2.5-9.8,3.9-5,6.8-6.5c2.9-1.6,6.3-2.4,10.1-2.4s7.3.8,10.3,2.3c2.9,1.6,5.2,3.7,6.8,6.5s2.5,6,2.5,9.8-.8,7-2.4,9.8c-1.6,2.8-3.9,5-6.8,6.5-2.9,1.6-6.4,2.3-10.3,2.3ZM365.7,244.4c2.2,0,4.2-.6,5.8-1.7,1.6-1.1,2.9-2.8,3.7-4.9.9-2.1,1.3-4.6,1.3-7.5s-.4-5.5-1.3-7.6c-.9-2.1-2.2-3.8-3.8-4.9-1.6-1.2-3.6-1.8-5.8-1.8s-4.1.6-5.6,1.7c-1.6,1.1-2.8,2.7-3.6,4.8-.8,2.1-1.3,4.6-1.3,7.6s.4,5.4,1.3,7.6c.9,2.1,2.1,3.8,3.7,5,1.6,1.2,3.5,1.8,5.6,1.8Z"/>
      <path class="st0" d="M425.1,215.3c-.4.1-.8.3-.9.5-.2.2-.2.6-.2,1.2v31c0,.3-.2.5-.5.5h-2.5c-.3,0-.6-.1-.8-.4l-24.5-29.6,3.8-3.8v29c0,.5,0,.8.2,1,.1.2.5.4,1,.6l3.3.9c.3.2.4.4.4.7v1c0,.3-.2.5-.5.5h-13.9c-.3,0-.5-.2-.5-.5v-1.1c0-.3.2-.5.5-.6l3.6-1c.4-.1.7-.3.9-.5.2-.2.3-.6.3-1.2v-26.4c0-.6-.1-1-.3-1.3-.2-.3-.6-.5-1-.6l-3.4-.9c-.3-.1-.4-.3-.4-.6v-1c0-.3.2-.5.5-.5h10.1c.3,0,.6.1.8.3l21.9,26.5-3.6,5.7v-27.9c0-.5,0-.8-.2-1-.1-.2-.5-.4-1-.6l-3.2-.9c-.3-.2-.4-.4-.4-.7v-1c0-.3.2-.5.5-.5h13.9c.3,0,.4.2.4.5v1.1c0,.3-.1.5-.4.6l-3.6,1Z"/>
    </g>
    <g>
      <path class="st0" d="M40.5,274.1c0,0-.2,0-.2-.1l-4.4-11.4c0-.1,0-.2-.2-.2,0,0-.2,0-.3-.1h-1.1c0-.1-.1-.2-.1-.3v-.2c0,0,0-.1.1-.1h5.2c0,0,.1,0,.1.2v.2c0,0,0,.1-.2.2h-1.5c-.3.2-.5.2-.6.3,0,.1,0,.3,0,.6l3.7,9.8-.8.4,3.7-11.5c0,0,0-.1.2-.1h.4c0,0,.1,0,.2.1l4,11.1-.8.4,3.5-10.1c.1-.3.1-.5,0-.6,0-.1-.3-.2-.6-.2h-1.4c0-.1-.1-.2-.1-.3v-.2c0,0,0-.1.2-.1h4.7c0,0,.1,0,.1.2v.2c0,0,0,.1-.2.2l-1.2.2c-.1,0-.2,0-.3.1,0,0-.1.2-.2.3l-4,11.3c0,0,0,.1-.2.1h-.4c0,0-.2,0-.2-.1l-3.8-10.6.7-.6-3.6,11.1c0,0,0,.1-.2.1h-.4Z"/>
      <path class="st0" d="M57.8,274.2c-.8,0-1.5-.2-2.2-.5-.6-.3-1.1-.8-1.4-1.5s-.5-1.4-.5-2.2.2-1.6.5-2.3c.3-.6.8-1.1,1.4-1.5.6-.3,1.3-.5,2.2-.5s1.6.2,2.2.5c.6.3,1.1.8,1.4,1.5.3.6.5,1.4.5,2.3s-.2,1.6-.5,2.2c-.3.6-.8,1.1-1.4,1.5-.6.3-1.3.5-2.2.5ZM57.8,273.4c.9,0,1.6-.3,2-.9.5-.6.7-1.4.7-2.5s-.1-1.3-.4-1.8c-.2-.5-.6-.9-1-1.2-.4-.3-.9-.4-1.5-.4-.9,0-1.5.3-2,.9-.5.6-.7,1.4-.7,2.5s.3,1.9.8,2.5c.5.6,1.2.9,2,.9Z"/>
      <path class="st0" d="M67.9,274.2c-.8,0-1.5-.2-2.2-.5-.6-.3-1.1-.8-1.4-1.5s-.5-1.4-.5-2.2.2-1.6.5-2.3c.3-.6.8-1.1,1.4-1.5.6-.3,1.3-.5,2.2-.5s1.6.2,2.2.5c.6.3,1.1.8,1.4,1.5.3.6.5,1.4.5,2.3s-.2,1.6-.5,2.2c-.3.6-.8,1.1-1.4,1.5-.6.3-1.3.5-2.2.5ZM67.9,273.4c.9,0,1.6-.3,2-.9.5-.6.7-1.4.7-2.5s-.1-1.3-.4-1.8c-.2-.5-.6-.9-1-1.2-.4-.3-.9-.4-1.5-.4-.9,0-1.5.3-2,.9-.5.6-.7,1.4-.7,2.5s.3,1.9.8,2.5c.5.6,1.2.9,2,.9Z"/>
      <path class="st0" d="M74.7,264.5v-2.4l.3.5-1.6-.2c0,0-.1,0-.1-.2v-.2c0,0,0-.1.2-.2l2.1-.3c.1,0,.3,0,.3,0,0,0,0,.1,0,.2v2.7h-1.2ZM73.6,274.1c0,0-.1,0-.1-.2v-.2c0-.1,0-.2.1-.2h.8c.1-.2.2-.2.3-.3,0,0,0-.1,0-.3v-2h1.2v2.1c0,.1,0,.2,0,.2,0,0,.1,0,.3,0l1.2.2c0,0,.1,0,.1.2v.2c0,0,0,.1-.2.1h-3.9ZM74.7,274.1v-9.6h1.2v9.6h-1.2Z"/>
      <path class="st0" d="M84.1,268.7v-2.5l.3.5-1.6-.2c0,0-.1,0-.1-.2v-.2c0,0,0-.1.2-.2l2.1-.3c.2,0,.3,0,.3,0,0,0,0,.1,0,.3v2.7h-1.2ZM83,274.1c0,0-.1,0-.1-.2v-.2c0-.1,0-.2.2-.2h.8c.1-.2.2-.2.3-.3,0,0,0-.1,0-.3v-2h1.2v2.1c0,.1,0,.2,0,.2,0,0,.1,0,.3,0l1.2.2c0,0,.1,0,.1.2v.2c0,0,0,.1-.2.1h-3.9ZM84.8,264.1c-.2,0-.5,0-.6-.2-.2-.2-.3-.3-.3-.6s0-.4.3-.6c.2-.2.4-.2.6-.2s.5,0,.6.2c.2.2.3.3.3.6s0,.4-.3.6c-.2.2-.4.2-.6.2ZM84.1,274.1v-5.4h1.2v5.4h-1.2Z"/>
      <path class="st0" d="M92.4,269.4c.7.2,1.3.5,1.7.7.4.2.7.5.9.7.2.3.3.6.3.9,0,.5-.1,1-.4,1.4-.3.4-.7.7-1.2.9-.5.2-1.2.3-1.9.3s-1.1,0-1.6-.2c-.5-.1-.8-.2-1.1-.4,0,0-.1-.1-.2-.2l-.2-2c0,0,0-.1.1-.2h.3c0,0,.1,0,.2,0l.2.8c.1.4.3.7.7.9.3.2.8.3,1.5.3s1.3-.1,1.6-.4c.4-.3.6-.6.6-1.1s0-.4-.2-.6c-.1-.2-.4-.3-.7-.5-.3-.2-.7-.3-1.3-.5-.7-.3-1.3-.5-1.7-.7s-.7-.5-.9-.7c-.2-.3-.2-.6-.2-1,0-.7.3-1.3.9-1.7s1.4-.6,2.4-.6.9,0,1.4.1.7.2.9.3c0,0,.1.1.1.2v1.9c.1,0,0,.1,0,.1h-.3c-.1,0-.2,0-.2-.1v-.7c-.2-.5-.4-.8-.8-.9-.3-.2-.7-.2-1.2-.2s-1.1.1-1.5.4c-.4.3-.6.6-.6,1s0,.4.2.6.3.3.7.5c.3.1.8.3,1.4.5Z"/>
      <path class="st0" d="M100.9,266.5c0,0-.1,0-.1-.2v-.3c0,0,.1-.1.2-.2h1c0-.1,3.4-.1,3.4-.1h.9c0,0,.1,0,.1.1v.2c0,0,0,.2,0,.2,0,0,0,.1-.2.1h-5.4ZM104.2,274.2c-.7,0-1.3-.2-1.7-.6-.4-.4-.6-1-.6-1.8v-5.8h0v-1.7c0,0,0-.2.1-.2,0,0,.2,0,.3,0,.1,0,.2,0,.3,0s.2,0,.3,0,.1,0,.1.2v7.7c0,.6.1,1,.4,1.2.3.3.7.4,1.3.4s.4,0,.6,0c.2,0,.4,0,.6-.1,0,0,.1,0,.2.1v.2c0,0,0,.2,0,.2-.2.1-.4.2-.6.3s-.5.1-.7.2c-.2,0-.5,0-.7,0Z"/>
      <path class="st0" d="M108.6,264.5v-2.4l.3.5-1.6-.2c0,0-.1,0-.1-.2v-.2c0,0,0-.1.2-.2l2.1-.3c.1,0,.3,0,.3,0,0,0,0,.1,0,.2v2.7h-1.2ZM107.5,274.1c0,0-.1,0-.1-.2v-.2c0-.1,0-.2.1-.2h.8c.1-.2.2-.2.3-.3,0,0,0-.1,0-.3v-2h1.2v2.1c0,.1,0,.2,0,.2,0,0,.1,0,.3,0l1.2.2c0,0,.1,0,.1.2v.2c0,0,0,.1-.2.1h-3.9ZM108.6,274.1v-9.6h1.2v9.6h-1.2ZM114.7,268.5c0-.6-.1-1-.4-1.4-.3-.3-.7-.5-1.3-.5s-1.1.1-1.6.4c-.6.3-1.1.7-1.6,1.2v-.4c.2-.4.6-.8,1-1.2.4-.3.9-.6,1.4-.8.5-.2.9-.3,1.4-.3.8,0,1.4.2,1.8.7.4.5.6,1.1.6,2v5.7h-1.2v-5.6ZM113.5,274.1c0,0-.1,0-.1-.2v-.2c0-.1,0-.2.1-.2h.8c.1-.2.2-.2.3-.3,0,0,0-.1,0-.3v-2h1.2v2.1c0,.1,0,.2,0,.2,0,0,.1,0,.3,0l1.2.2c0,0,.1,0,.1.2v.2c0,0,0,.1-.2.1h-3.9Z"/>
      <path class="st0" d="M122.7,274.2c-.7,0-1.4-.2-2-.5-.6-.3-1.1-.8-1.4-1.5-.3-.6-.5-1.4-.5-2.3s.2-1.7.5-2.3c.4-.6.8-1.1,1.4-1.4.6-.3,1.3-.5,2-.5s1.2.1,1.7.4c.5.3.9.7,1.2,1.3s.5,1.2.5,1.9v.2c0,0,0,.1,0,.2,0,0,0,.1-.2.1h-6.2v-.7h5.5l-.3.4h0v-.3c0-.5-.1-1-.3-1.4-.2-.4-.5-.7-.8-1-.4-.2-.8-.3-1.2-.3-.8,0-1.5.3-1.9.9-.5.6-.7,1.4-.7,2.5s.1,1.3.4,1.8.6.9,1,1.2c.4.3.9.5,1.5.5.9,0,1.7-.2,2.2-.7,0,0,.1,0,.2,0v.2c.2,0,.2.2.1.2-.3.4-.8.7-1.2.9-.5.2-1,.3-1.6.3Z"/>
      <path class="st0" d="M131.8,261.8c0-.1,0-.2.1-.2h3.2v3.7h-1.3v-2.5c0-.1,0-.2,0-.3,0,0-.1,0-.2-.1l-1.6-.2c0,0-.1,0-.1-.2v-.2ZM131.9,274.1c0,0-.1,0-.1-.2v-.2c0-.1,0-.2.1-.2l1.6-.2c.1,0,.2,0,.2-.1s0-.1,0-.3v-2.5h1.3v3.7h-3.2ZM133.8,274.1v-12.5h1.3v11.3c0,.1,0,.2,0,.3,0,0,.1,0,.3,0h5.4c.1,0,.2,0,.3,0,0,0,.1-.1.2-.3l.9-2c0,0,.1-.1.2,0h.3c.1,0,.1.2.1.3l-.5,2.7c0,0,0,.2,0,.2,0,0,0,0-.2,0s-.2,0-.4,0h-.8c0,0-7.1,0-7.1,0ZM142,264.7c0,0-.2,0-.2-.1l-.6-1.9c0-.1,0-.2-.2-.2,0,0-.2,0-.3,0h-5.6v-.8h6.8c0-.1.2-.1.2,0s0,0,.1.1c0,0,0,.2,0,.3l.2,2.5c0,0,0,.1-.2.2h-.2ZM140.5,269.8c0,0-.1,0-.2-.1l-.3-1.3c0-.1,0-.2-.1-.2,0,0-.2,0-.3,0h-4.5v-.8h4.5c.1,0,.2,0,.3,0,0,0,.1-.1.2-.3l.3-1c0,0,0-.1.2-.1h.2c0,0,.1,0,.1.2v3.7c0,0,0,.1-.2.1h-.2Z"/>
      <path class="st0" d="M148.4,269.4c.7.2,1.3.5,1.7.7.4.2.7.5.9.7.2.3.3.6.3.9,0,.5-.1,1-.4,1.4-.3.4-.7.7-1.2.9-.5.2-1.2.3-1.9.3s-1.1,0-1.6-.2c-.5-.1-.8-.2-1.1-.4,0,0-.1-.1-.2-.2l-.2-2c0,0,0-.1.1-.2h.3c0,0,.1,0,.2,0l.2.8c.1.4.3.7.7.9.3.2.8.3,1.5.3s1.3-.1,1.6-.4c.4-.3.6-.6.6-1.1s0-.4-.2-.6c-.1-.2-.4-.3-.7-.5-.3-.2-.7-.3-1.3-.5-.7-.3-1.3-.5-1.7-.7s-.7-.5-.9-.7c-.2-.3-.2-.6-.2-1,0-.7.3-1.3.9-1.7s1.4-.6,2.4-.6.9,0,1.4.1.7.2.9.3c0,0,.1.1.1.2v1.9c.1,0,0,.1,0,.1h-.3c-.1,0-.2,0-.2-.1v-.7c-.2-.5-.4-.8-.8-.9-.3-.2-.7-.2-1.2-.2s-1.1.1-1.5.4c-.4.3-.6.6-.6,1s0,.4.2.6.3.3.7.5c.3.1.8.3,1.4.5Z"/>
      <path class="st0" d="M156.8,269.4c.7.2,1.3.5,1.7.7.4.2.7.5.9.7.2.3.3.6.3.9,0,.5-.1,1-.4,1.4-.3.4-.7.7-1.2.9-.5.2-1.2.3-1.9.3s-1.1,0-1.6-.2c-.5-.1-.8-.2-1.1-.4,0,0-.1-.1-.2-.2l-.2-2c0,0,0-.1.1-.2h.3c0,0,.1,0,.2,0l.2.8c.1.4.3.7.7.9.3.2.8.3,1.5.3s1.3-.1,1.6-.4c.4-.3.6-.6.6-1.1s0-.4-.2-.6c-.1-.2-.4-.3-.7-.5-.3-.2-.7-.3-1.3-.5-.7-.3-1.3-.5-1.7-.7s-.7-.5-.9-.7c-.2-.3-.2-.6-.2-1,0-.7.3-1.3.9-1.7s1.4-.6,2.4-.6.9,0,1.4.1.7.2.9.3c0,0,.1.1.1.2v1.9c.1,0,0,.1,0,.1h-.3c-.1,0-.2,0-.2-.1v-.7c-.2-.5-.4-.8-.8-.9-.3-.2-.7-.2-1.2-.2s-1.1.1-1.5.4c-.4.3-.6.6-.6,1s0,.4.2.6.3.3.7.5c.3.1.8.3,1.4.5Z"/>
      <path class="st0" d="M165.4,274.2c-.7,0-1.4-.2-2-.5-.6-.3-1.1-.8-1.4-1.5-.3-.6-.5-1.4-.5-2.3s.2-1.7.5-2.3c.4-.6.8-1.1,1.4-1.4.6-.3,1.3-.5,2-.5s1.2.1,1.7.4c.5.3.9.7,1.2,1.3s.5,1.2.5,1.9v.2c0,0,0,.1,0,.2,0,0,0,.1-.2.1h-6.2v-.7h5.5l-.3.4h0v-.3c0-.5-.1-1-.3-1.4-.2-.4-.5-.7-.8-1-.4-.2-.8-.3-1.2-.3-.8,0-1.5.3-1.9.9-.5.6-.7,1.4-.7,2.5s.1,1.3.4,1.8.6.9,1,1.2c.4.3.9.5,1.5.5.9,0,1.7-.2,2.2-.7,0,0,.1,0,.2,0v.2c.2,0,.2.2.1.2-.3.4-.8.7-1.2.9-.5.2-1,.3-1.6.3Z"/>
      <path class="st0" d="M171.8,268.7v-2.4l.3.5-1.6-.2c0,0-.1,0-.1-.2v-.2c0,0,0-.1.2-.2l2-.3c.1,0,.3,0,.3,0,0,0,0,.1,0,.2v1.9c0,0,0,.8,0,.8h-1.2ZM170.7,274.1c0,0-.1,0-.1-.2v-.2c0-.1,0-.2.2-.2h.8c.1-.2.2-.2.3-.3,0,0,0-.1,0-.3v-2h1.2v2.1c0,.1,0,.2,0,.2,0,0,.1,0,.3,0l1.2.2c0,0,.1,0,.1.2v.2c0,0,0,.1-.2.1h-3.9ZM171.8,274.1v-5.4h1.2v5.4h-1.2ZM177.9,268.5c0-.6-.1-1-.4-1.4-.3-.3-.7-.5-1.3-.5s-1.1.1-1.6.4c-.6.3-1.1.7-1.6,1.2v-.4c.2-.4.5-.8,1-1.2.4-.3.9-.6,1.4-.8.5-.2.9-.3,1.4-.3.8,0,1.4.2,1.8.7.4.5.6,1.1.6,2v5.7h-1.2v-5.6ZM176.7,274.1c0,0-.1,0-.1-.2v-.2c0-.1,0-.2.2-.2h.8c.1-.2.2-.2.2-.3,0,0,0-.1,0-.3v-2h1.2v2.1c0,.1,0,.2,0,.2,0,0,.1,0,.3,0l1.2.2c0,0,.1,0,.1.2v.2c0,0,0,.1-.2.1h-3.9Z"/>
      <path class="st0" d="M185.9,274.2c-.8,0-1.4-.2-2-.5s-1-.9-1.4-1.5c-.3-.6-.5-1.4-.5-2.2s.2-1.6.5-2.2.8-1.1,1.4-1.5c.6-.4,1.3-.5,2.1-.5s1,0,1.5.2c.5.1.9.2,1.2.4,0,0,.1.1.1.2l-.2,2.3c0,0,0,.1-.2.1h-.3c-.1,0-.2,0-.2-.2l-.4-2.1.7.5c-.3-.1-.6-.3-1-.3-.4,0-.8-.1-1.2-.1-.9,0-1.6.3-2.1.8-.5.6-.7,1.4-.7,2.4s.1,1.3.4,1.8c.2.5.6.9,1,1.2.4.3.9.4,1.5.4s.9,0,1.3-.2c.4-.1.7-.3,1-.5,0,0,.1,0,.2,0v.2c.2,0,.2.1.1.2-.3.4-.8.7-1.3.9-.5.2-1.1.3-1.7.3Z"/>
      <path class="st0" d="M194.8,274.2c-.7,0-1.4-.2-2-.5-.6-.3-1.1-.8-1.4-1.5-.3-.6-.5-1.4-.5-2.3s.2-1.7.5-2.3c.4-.6.8-1.1,1.4-1.4.6-.3,1.3-.5,2-.5s1.2.1,1.7.4c.5.3.9.7,1.2,1.3s.5,1.2.5,1.9v.2c0,0,0,.1,0,.2,0,0,0,.1-.2.1h-6.2v-.7h5.5l-.3.4h0v-.3c0-.5-.1-1-.3-1.4-.2-.4-.5-.7-.8-1-.4-.2-.8-.3-1.2-.3-.8,0-1.5.3-1.9.9-.5.6-.7,1.4-.7,2.5s.1,1.3.4,1.8.6.9,1,1.2c.4.3.9.5,1.5.5.9,0,1.7-.2,2.2-.7,0,0,.1,0,.2,0v.2c.2,0,.2.2.1.2-.3.4-.8.7-1.2.9-.5.2-1,.3-1.6.3Z"/>
      <path class="st0" d="M200.5,277.4c0,0-.1,0-.2,0h0c0-.2,0-.3,0-.3.3-.2.5-.4.7-.7.2-.3.3-.6.3-1.1s0-.7-.3-1c-.2-.3-.3-.5-.5-.7,0,0,0-.1,0-.2,0-.1.2-.2.3-.3.1-.1.3-.2.4-.3s.3-.1.4-.1.2,0,.4.3c.1.2.2.4.3.7s.1.6.1.9,0,.8-.2,1.2c-.1.3-.3.6-.5.9-.2.2-.4.4-.6.6-.2.2-.4.3-.6.3Z"/>
      <path class="st0" d="M209.3,261.8c0-.1,0-.2.1-.2h3.2v3.7h-1.3v-2.5c0-.1,0-.2,0-.3,0,0-.1,0-.2-.1l-1.6-.2c0,0-.1,0-.1-.2v-.2ZM209.4,274.1c0,0-.1,0-.1-.2v-.2c0-.1,0-.2.1-.2l1.6-.2c.1,0,.2,0,.2-.1s0-.1,0-.3v-2.5h1.3v3.7h-3.2ZM211.3,274.1v-12.5h1.3v11.3c0,.1,0,.2,0,.3,0,0,.1,0,.3,0h2.1c1.2,0,2.1-.2,2.7-.7.6-.4.9-1.1.9-2s-.3-1.5-.9-1.9c-.6-.4-1.5-.6-2.8-.6h-2.3v-.8h2.3c1,0,1.7-.2,2.2-.6.5-.4.7-1.1.7-2s-.2-1.4-.7-1.7c-.4-.4-1.1-.6-2-.6h-2.5v-.8h2.5c1.4,0,2.4.3,3.1.8.7.5,1,1.3,1,2.3s0,.9-.3,1.3-.4.7-.7.9c-.3.3-.6.4-.9.6-.3.1-.6.2-.9.2h0c.2-.1.5-.1.9,0,.3,0,.7.2,1,.3s.6.4.9.6c.3.2.5.5.7.9.2.3.3.7.3,1.2,0,1.1-.4,2-1.2,2.6-.8.6-2.1.8-3.7.8h-3.8Z"/>
      <path class="st0" d="M222.9,268.7v-2.4l.3.5-1.6-.2c0,0-.1,0-.1-.2v-.2c0,0,0-.1.2-.2l2.1-.3c.1,0,.3,0,.3,0,0,0,0,.1,0,.2v2.7h-1.2ZM225.3,274.2c-.8,0-1.4-.2-1.8-.7-.4-.5-.6-1.1-.6-2v-2.8h1.2v2.7c0,1.2.5,1.8,1.6,1.8s2.3-.5,3.3-1.6v.5c-.2.4-.5.8-.9,1.1-.4.3-.9.6-1.4.8-.5.2-1,.3-1.5.3ZM228.9,268.7v-2.4l.3.5-1.6-.2c0,0-.1,0-.1-.2v-.2c0,0,0-.1.2-.2l2.1-.3c.1,0,.3,0,.3,0,0,0,0,.1,0,.2v2.7h-1.2ZM228.9,271.4v-2.7h1.2v2.7h-1.2ZM230.1,271.4v2.3l-.3-.5,1.6.3c0,0,.1,0,.1.2v.2c0,0,0,.1-.2.2l-2.2.2c0,0-.1,0-.2,0,0,0,0,0,0-.2v-2.1s0-.6,0-.6h1.2Z"/>
      <path class="st0" d="M232.7,266.5c0,0-.1,0-.1-.2v-.3c0,0,.1-.1.2-.2h1c0-.1,3.4-.1,3.4-.1h.9c0,0,.1,0,.1.1v.2c0,0,0,.2,0,.2,0,0,0,.1-.2.1h-5.4ZM236.1,274.2c-.7,0-1.3-.2-1.7-.6-.4-.4-.6-1-.6-1.8v-5.8h0v-1.7c0,0,0-.2.1-.2,0,0,.2,0,.3,0,.1,0,.2,0,.3,0s.2,0,.3,0,.1,0,.1.2v7.7c0,.6.1,1,.4,1.2.3.3.7.4,1.3.4s.4,0,.6,0c.2,0,.4,0,.6-.1,0,0,.1,0,.2.1v.2c0,0,0,.2,0,.2-.2.1-.4.2-.6.3s-.5.1-.7.2c-.2,0-.5,0-.7,0Z"/>
      <path class="st0" d="M239.3,266.5c0,0-.1,0-.1-.2v-.3c0,0,.1-.1.2-.2h1c0-.1,3.4-.1,3.4-.1h.9c0,0,.1,0,.1.1v.2c0,0,0,.2,0,.2,0,0,0,.1-.2.1h-5.4ZM242.7,274.2c-.7,0-1.3-.2-1.7-.6-.4-.4-.6-1-.6-1.8v-5.8h0v-1.7c0,0,0-.2.1-.2,0,0,.2,0,.3,0,.1,0,.2,0,.3,0s.2,0,.3,0,.1,0,.1.2v7.7c0,.6.1,1,.4,1.2.3.3.7.4,1.3.4s.4,0,.6,0c.2,0,.4,0,.6-.1,0,0,.1,0,.2.1v.2c0,0,0,.2,0,.2-.2.1-.4.2-.6.3s-.5.1-.7.2c-.2,0-.5,0-.7,0Z"/>
      <path class="st0" d="M250.3,274.2c-.8,0-1.5-.2-2.2-.5-.6-.3-1.1-.8-1.4-1.5s-.5-1.4-.5-2.2.2-1.6.5-2.3c.3-.6.8-1.1,1.4-1.5.6-.3,1.3-.5,2.2-.5s1.6.2,2.2.5c.6.3,1.1.8,1.4,1.5.3.6.5,1.4.5,2.3s-.2,1.6-.5,2.2c-.3.6-.8,1.1-1.4,1.5-.6.3-1.3.5-2.2.5ZM250.3,273.4c.9,0,1.6-.3,2-.9.5-.6.7-1.4.7-2.5s-.1-1.3-.4-1.8c-.2-.5-.6-.9-1-1.2-.4-.3-.9-.4-1.5-.4-.9,0-1.5.3-2,.9-.5.6-.7,1.4-.7,2.5s.3,1.9.8,2.5c.5.6,1.2.9,2,.9Z"/>
      <path class="st0" d="M257.5,268.7v-2.4l.3.5-1.6-.2c0,0-.1,0-.1-.2v-.2c0,0,0-.1.2-.2l2-.3c.1,0,.3,0,.3,0,0,0,0,.1,0,.2v1.9c0,0,0,.8,0,.8h-1.2ZM256.4,274.1c0,0-.1,0-.1-.2v-.2c0-.1,0-.2.2-.2h.8c.1-.2.2-.2.3-.3,0,0,0-.1,0-.3v-2h1.2v2.1c0,.1,0,.2,0,.2,0,0,.1,0,.3,0l1.2.2c0,0,.1,0,.1.2v.2c0,0,0,.1-.2.1h-3.9ZM257.5,274.1v-5.4h1.2v5.4h-1.2ZM263.6,268.5c0-.6-.1-1-.4-1.4-.3-.3-.7-.5-1.3-.5s-1.1.1-1.6.4c-.6.3-1.1.7-1.6,1.2v-.4c.2-.4.5-.8,1-1.2.4-.3.9-.6,1.4-.8.5-.2.9-.3,1.4-.3.8,0,1.4.2,1.8.7.4.5.6,1.1.6,2v5.7h-1.2v-5.6ZM262.5,274.1c0,0-.1,0-.1-.2v-.2c0-.1,0-.2.2-.2h.8c.1-.2.2-.2.2-.3,0,0,0-.1,0-.3v-2h1.2v2.1c0,.1,0,.2,0,.2,0,0,.1,0,.3,0l1.2.2c0,0,.1,0,.1.2v.2c0,0,0,.1-.2.1h-3.9Z"/>
      <path class="st0" d="M273.1,268.7v-2.5l.3.5-1.6-.2c0,0-.1,0-.1-.2v-.2c0,0,0-.1.2-.2l2.1-.3c.2,0,.3,0,.3,0,0,0,0,.1,0,.3v2.7h-1.2ZM272,274.1c0,0-.1,0-.1-.2v-.2c0-.1,0-.2.2-.2h.8c.1-.2.2-.2.3-.3,0,0,0-.1,0-.3v-2h1.2v2.1c0,.1,0,.2,0,.2,0,0,.1,0,.3,0l1.2.2c0,0,.1,0,.1.2v.2c0,0,0,.1-.2.1h-3.9ZM273.8,264.1c-.2,0-.5,0-.6-.2-.2-.2-.3-.3-.3-.6s0-.4.3-.6c.2-.2.4-.2.6-.2s.5,0,.6.2c.2.2.3.3.3.6s0,.4-.3.6c-.2.2-.4.2-.6.2ZM273.1,274.1v-5.4h1.2v5.4h-1.2Z"/>
      <path class="st0" d="M281.4,269.4c.7.2,1.3.5,1.7.7.4.2.7.5.9.7.2.3.3.6.3.9,0,.5-.1,1-.4,1.4-.3.4-.7.7-1.2.9-.5.2-1.2.3-1.9.3s-1.1,0-1.6-.2c-.5-.1-.8-.2-1.1-.4,0,0-.1-.1-.2-.2l-.2-2c0,0,0-.1.1-.2h.3c0,0,.1,0,.2,0l.2.8c.1.4.3.7.7.9.3.2.8.3,1.5.3s1.3-.1,1.6-.4c.4-.3.6-.6.6-1.1s0-.4-.2-.6c-.1-.2-.4-.3-.7-.5-.3-.2-.7-.3-1.3-.5-.7-.3-1.3-.5-1.7-.7s-.7-.5-.9-.7c-.2-.3-.2-.6-.2-1,0-.7.3-1.3.9-1.7s1.4-.6,2.4-.6.9,0,1.4.1.7.2.9.3c0,0,.1.1.1.2v1.9c.1,0,0,.1,0,.1h-.3c-.1,0-.2,0-.2-.1v-.7c-.2-.5-.4-.8-.8-.9-.3-.2-.7-.2-1.2-.2s-1.1.1-1.5.4c-.4.3-.6.6-.6,1s0,.4.2.6.3.3.7.5c.3.1.8.3,1.4.5Z"/>
      <path class="st0" d="M289.8,266.5c0,0-.1,0-.1-.2v-.3c0,0,.1-.1.2-.2h1c0-.1,3.4-.1,3.4-.1h.9c0,0,.1,0,.1.1v.2c0,0,0,.2,0,.2,0,0,0,.1-.2.1h-5.4ZM293.2,274.2c-.7,0-1.3-.2-1.7-.6-.4-.4-.6-1-.6-1.8v-5.8h0v-1.7c0,0,0-.2.1-.2,0,0,.2,0,.3,0,.1,0,.2,0,.3,0s.2,0,.3,0,.1,0,.1.2v7.7c0,.6.1,1,.4,1.2.3.3.7.4,1.3.4s.4,0,.6,0c.2,0,.4,0,.6-.1,0,0,.1,0,.2.1v.2c0,0,0,.2,0,.2-.2.1-.4.2-.6.3s-.5.1-.7.2c-.2,0-.5,0-.7,0Z"/>
      <path class="st0" d="M297.6,264.5v-2.4l.3.5-1.6-.2c0,0-.1,0-.1-.2v-.2c0,0,0-.1.2-.2l2.1-.3c.1,0,.3,0,.3,0,0,0,0,.1,0,.2v2.7h-1.2ZM296.5,274.1c0,0-.1,0-.1-.2v-.2c0-.1,0-.2.1-.2h.8c.1-.2.2-.2.3-.3,0,0,0-.1,0-.3v-2h1.2v2.1c0,.1,0,.2,0,.2,0,0,.1,0,.3,0l1.2.2c0,0,.1,0,.1.2v.2c0,0,0,.1-.2.1h-3.9ZM297.6,274.1v-9.6h1.2v9.6h-1.2ZM303.7,268.5c0-.6-.1-1-.4-1.4-.3-.3-.7-.5-1.3-.5s-1.1.1-1.6.4c-.6.3-1.1.7-1.6,1.2v-.4c.2-.4.6-.8,1-1.2.4-.3.9-.6,1.4-.8.5-.2.9-.3,1.4-.3.8,0,1.4.2,1.8.7.4.5.6,1.1.6,2v5.7h-1.2v-5.6ZM302.5,274.1c0,0-.1,0-.1-.2v-.2c0-.1,0-.2.1-.2h.8c.1-.2.2-.2.3-.3,0,0,0-.1,0-.3v-2h1.2v2.1c0,.1,0,.2,0,.2,0,0,.1,0,.3,0l1.2.2c0,0,.1,0,.1.2v.2c0,0,0,.1-.2.1h-3.9Z"/>
      <path class="st0" d="M311.7,274.2c-.7,0-1.4-.2-2-.5-.6-.3-1.1-.8-1.4-1.5-.3-.6-.5-1.4-.5-2.3s.2-1.7.5-2.3c.4-.6.8-1.1,1.4-1.4.6-.3,1.3-.5,2-.5s1.2.1,1.7.4c.5.3.9.7,1.2,1.3s.5,1.2.5,1.9v.2c0,0,0,.1,0,.2,0,0,0,.1-.2.1h-6.2v-.7h5.5l-.3.4h0v-.3c0-.5-.1-1-.3-1.4-.2-.4-.5-.7-.8-1-.4-.2-.8-.3-1.2-.3-.8,0-1.5.3-1.9.9-.5.6-.7,1.4-.7,2.5s.1,1.3.4,1.8.6.9,1,1.2c.4.3.9.5,1.5.5.9,0,1.7-.2,2.2-.7,0,0,.1,0,.2,0v.2c.2,0,.2.2.1.2-.3.4-.8.7-1.2.9-.5.2-1,.3-1.6.3Z"/>
      <path class="st0" d="M326,267.1c1,.3,1.8.6,2.3.9s1,.7,1.2,1.1c.2.4.4.9.4,1.5s-.2,1.4-.5,1.9c-.4.5-.9.9-1.5,1.2-.7.3-1.5.4-2.4.4s-1.1,0-1.6-.1c-.5,0-.9-.2-1.3-.3-.4-.1-.7-.3-.9-.4,0,0-.1-.1-.1-.2v-2.4c-.1-.1,0-.2,0-.2h.3c0,0,.1,0,.2.1l.3,1c0,.3.2.6.4.8.2.2.5.4.7.5s.6.2.9.2c.3,0,.6,0,1,0,1,0,1.8-.2,2.4-.6.6-.4.9-1,.9-1.7s0-.8-.3-1.1c-.2-.3-.5-.6-1-.8-.5-.2-1.1-.5-2-.8-1-.3-1.8-.6-2.3-.9-.6-.3-1-.7-1.2-1.1-.2-.4-.4-.9-.4-1.5s.2-1.3.5-1.8c.4-.5.9-.9,1.5-1.1.7-.3,1.4-.4,2.3-.4s1,0,1.4.1c.4,0,.8.2,1.1.3.3.1.6.3.8.4,0,0,.1.1.1.2v2.3c.1,0,0,.1,0,.1h-.4c0,0-.1,0-.2-.1l-.4-1.2c-.1-.3-.3-.6-.5-.8-.3-.2-.6-.3-.9-.4-.3,0-.7-.1-1.1-.1-1,0-1.7.2-2.3.6s-.8.9-.8,1.6,0,.8.3,1c.2.3.5.6,1,.8.5.2,1.1.5,1.9.7Z"/>
      <path class="st0" d="M331.8,266.5c0,0-.1,0-.1-.2v-.3c0,0,.1-.1.2-.2h1c0-.1,3.4-.1,3.4-.1h.9c0,0,.1,0,.1.1v.2c0,0,0,.2,0,.2,0,0,0,.1-.2.1h-5.4ZM335.2,274.2c-.7,0-1.3-.2-1.7-.6-.4-.4-.6-1-.6-1.8v-5.8h0v-1.7c0,0,0-.2.1-.2,0,0,.2,0,.3,0,.1,0,.2,0,.3,0s.2,0,.3,0,.1,0,.1.2v7.7c0,.6.1,1,.4,1.2.3.3.7.4,1.3.4s.4,0,.6,0c.2,0,.4,0,.6-.1,0,0,.1,0,.2.1v.2c0,0,0,.2,0,.2-.2.1-.4.2-.6.3s-.5.1-.7.2c-.2,0-.5,0-.7,0Z"/>
      <path class="st0" d="M340.8,274.2c-.7,0-1.2-.2-1.6-.6s-.6-.9-.6-1.5.2-1.2.7-1.6c.5-.4,1.3-.6,2.3-.7l2.5-.3v.7s-2.2.3-2.2.3c-.7.1-1.3.3-1.6.5-.3.2-.5.6-.5,1s.1.7.4.9.6.3,1.1.3.9,0,1.2-.2c.4-.2.7-.3.9-.5.3-.2.4-.4.5-.5l.2.2c0,.2-.2.4-.3.6-.2.2-.4.4-.7.7-.3.2-.6.4-1,.5s-.8.2-1.2.2ZM343.9,268.5c0-.7-.2-1.2-.5-1.5-.3-.4-.8-.5-1.5-.5s-.6,0-.8.1-.5.2-.6.4c-.2.2-.3.5-.4.8v.7c-.1,0-.2.1-.3.1h-.2c-.1,0-.2,0-.2-.2,0-.3-.1-.6-.2-.9,0-.3-.1-.6-.2-.9,0,0,0-.1.1-.2.3-.1.7-.3,1.1-.5.5-.2,1-.3,1.7-.3,1,0,1.7.2,2.3.7.6.5.8,1.2.8,2v2.9h-1.2v-2.8ZM345.1,271.4v2.3l-.3-.5,1.6.3c0,0,.1,0,.1.2v.2c0,0,0,.1-.1.2h-.9c-.5.1-.8.1-1,.1-.2,0-.4,0-.4-.2,0-.1,0-.3,0-.5v-1h0v-1.1h1.2Z"/>
      <path class="st0" d="M349,268.7v-2.4l.3.5-1.6-.2c0,0-.1,0-.1-.2v-.2c0,0,0-.1.2-.2l2-.3c.1,0,.3,0,.3,0,0,0,0,.1,0,.2v1.9c0,0,0,.8,0,.8h-1.2ZM347.9,274.1c0,0-.1,0-.1-.2v-.2c0-.1,0-.2.2-.2h.8c.1-.2.2-.2.3-.3,0,0,0-.1,0-.3v-2h1.2v2.1c0,.1,0,.2,0,.2,0,0,.1,0,.3,0l1.2.2c0,0,.1,0,.1.2v.2c0,0,0,.1-.2.1h-3.9ZM349,274.1v-5.4h1.2v5.4h-1.2ZM355.1,268.5c0-.6-.1-1-.4-1.4-.3-.3-.7-.5-1.3-.5s-1.1.1-1.6.4c-.6.3-1.1.7-1.6,1.2v-.4c.2-.4.5-.8,1-1.2.4-.3.9-.6,1.4-.8.5-.2.9-.3,1.4-.3.8,0,1.4.2,1.8.7.4.5.6,1.1.6,2v5.7h-1.2v-5.6ZM354,274.1c0,0-.1,0-.1-.2v-.2c0-.1,0-.2.2-.2h.8c.1-.2.2-.2.2-.3,0,0,0-.1,0-.3v-2h1.2v2.1c0,.1,0,.2,0,.2,0,0,.1,0,.3,0l1.2.2c0,0,.1,0,.1.2v.2c0,0,0,.1-.2.1h-3.9Z"/>
      <path class="st0" d="M365.9,267.7c-.3-.4-.7-.7-1.1-.9-.4-.2-.9-.3-1.4-.3-.9,0-1.6.3-2.1.9-.5.6-.8,1.5-.8,2.6s.2,1.7.6,2.3c.4.6,1,.8,1.7.8s1-.1,1.5-.4c.5-.3.9-.7,1.3-1.1l.2.4c-.4.7-.9,1.2-1.5,1.6s-1.2.6-1.8.6-1.3-.2-1.8-.5c-.5-.3-.9-.8-1.2-1.4s-.4-1.3-.4-2.2.2-1.7.5-2.3.8-1.2,1.3-1.5,1.2-.5,2-.5,1.3.1,1.8.4c.6.3,1,.7,1.4,1.3l-.4.3ZM365.7,264.5v-2.4l.3.5-1.6-.2c0,0-.1,0-.1-.2v-.2c0,0,0-.1.2-.2l2.1-.3c.2,0,.3,0,.3,0,0,0,0,.1,0,.2v2.7h-1.2ZM365.7,271.4v-7.4h1.2v7.4h-1.2ZM366.9,271.4v2.3l-.3-.5,1.6.3c0,0,.1,0,.1.2v.2c0,0,0,.1-.1.2l-2.2.2c0,0-.1,0-.2,0,0,0,0,0,0-.2v-2.1s0-.6,0-.6h1.2Z"/>
      <path class="st0" d="M372,274.2c-.7,0-1.2-.2-1.6-.6s-.6-.9-.6-1.5.2-1.2.7-1.6c.5-.4,1.3-.6,2.3-.7l2.5-.3v.7s-2.2.3-2.2.3c-.7.1-1.3.3-1.6.5-.3.2-.5.6-.5,1s.1.7.4.9.6.3,1.1.3.9,0,1.2-.2c.4-.2.7-.3.9-.5.3-.2.4-.4.5-.5l.2.2c0,.2-.2.4-.3.6-.2.2-.4.4-.7.7-.3.2-.6.4-1,.5s-.8.2-1.2.2ZM375.1,268.5c0-.7-.2-1.2-.5-1.5-.3-.4-.8-.5-1.5-.5s-.6,0-.8.1-.5.2-.6.4c-.2.2-.3.5-.4.8v.7c-.1,0-.2.1-.3.1h-.2c-.1,0-.2,0-.2-.2,0-.3-.1-.6-.2-.9,0-.3-.1-.6-.2-.9,0,0,0-.1.1-.2.3-.1.7-.3,1.1-.5.5-.2,1-.3,1.7-.3,1,0,1.7.2,2.3.7.6.5.8,1.2.8,2v2.9h-1.2v-2.8ZM376.3,271.4v2.3l-.3-.5,1.6.3c0,0,.1,0,.1.2v.2c0,0,0,.1-.1.2h-.9c-.5.1-.8.1-1,.1-.2,0-.4,0-.4-.2,0-.1,0-.3,0-.5v-1h0v-1.1h1.2Z"/>
      <path class="st0" d="M380.2,268.7v-2.4l.3.5-1.6-.2c0,0-.1,0-.1-.2v-.2c0,0,0-.1.2-.2l2-.3c.1,0,.3,0,.3,0,0,0,0,.1,0,.2v1.9c0,0,0,.8,0,.8h-1.2ZM379.1,274.1c0,0-.1,0-.1-.2v-.2c0-.1,0-.2.2-.2h.8c.1-.2.2-.2.3-.3,0,0,0-.1,0-.3v-2h1.2v2.1c0,.1,0,.2,0,.2,0,0,.1,0,.3,0l1.2.2c0,0,.1,0,.1.2v.2c0,0,0,.1-.2.1h-3.9ZM380.2,274.1v-5.4h1.2v5.4h-1.2ZM384.9,266.9c0,0,0,.1-.1.1h-1c-.1,0-.2,0-.3,0s-.2,0-.3,0c-.3.1-.7.3-1,.6-.3.2-.6.5-.8.9v-.4c0-.3.2-.5.4-.8.2-.3.5-.6.8-.8s.6-.5.9-.6c.3-.2.7-.2,1-.2s.5,0,.5.2v1Z"/>
      <path class="st0" d="M393,267.7c-.3-.4-.7-.7-1.1-.9-.4-.2-.9-.3-1.4-.3-.9,0-1.6.3-2.1.9-.5.6-.8,1.5-.8,2.6s.2,1.7.6,2.3c.4.6,1,.8,1.7.8s1-.1,1.5-.4c.5-.3.9-.7,1.3-1.1l.2.4c-.4.7-.9,1.2-1.5,1.6s-1.2.6-1.8.6-1.3-.2-1.8-.5c-.5-.3-.9-.8-1.2-1.4s-.4-1.3-.4-2.2.2-1.7.5-2.3.8-1.2,1.3-1.5,1.2-.5,2-.5,1.3.1,1.8.4c.6.3,1,.7,1.4,1.3l-.4.3ZM392.7,264.5v-2.4l.3.5-1.6-.2c0,0-.1,0-.1-.2v-.2c0,0,0-.1.2-.2l2.1-.3c.2,0,.3,0,.3,0,0,0,0,.1,0,.2v2.7h-1.2ZM392.7,271.4v-7.4h1.2v7.4h-1.2ZM394,271.4v2.3l-.3-.5,1.6.3c0,0,.1,0,.1.2v.2c0,0,0,.1-.1.2l-2.2.2c0,0-.1,0-.2,0,0,0,0,0,0-.2v-2.1s0-.6,0-.6h1.2Z"/>
    </g>
    <g>
      <polygon class="st0" points="296.7 174.5 267.5 130.3 251.1 155.1 264 174.5 296.7 174.5"/>
      <polygon class="st0" points="193.2 113.5 208.4 90.6 184.3 54 217 54 224.8 65.8 232.6 54 249 54 233 78.2 256.4 113.5 295.8 54 312.2 54 256.4 137.7 232.4 174.5 200.8 174.5 188.9 156.6 205.3 131.8 224.8 161.2 240 138.3 216.6 102.9 169.3 174.5 152.8 174.5 176.8 138.3 121.1 54 153.9 54 193.2 113.5"/>
    </g>
  </g>
</svg>