<?xml version="1.0" encoding="UTF-8"?>
<svg id="Layer_2" data-name="Layer 2" xmlns="http://www.w3.org/2000/svg" viewBox="0 0 521.43 45.7">
  <defs>
    <style>
      .cls-1 {
        fill: #231916;
      }
    </style>
  </defs>
  <g id="_레이어_1" data-name="레이어 1">
    <g>
      <path class="cls-1" d="M21.46,44.93c-.35,0-.61-.18-.77-.53L4.89,5.78c-.24-.63-.55-1.09-.94-1.39-.39-.29-.87-.52-1.42-.68l-2-.35c-.35-.12-.53-.37-.53-.77v-1.24c0-.39.2-.59.59-.59h21.29c.35,0,.53.2.53.59v1.3c0,.35-.2.57-.59.65l-3.54.53c-1.18.2-1.89.53-2.12,1s-.2,1.2.12,2.18l11.09,30.13-5.6,3.42L35.03,1.3c.12-.35.37-.53.77-.53h3.3c.35,0,.63.18.83.53l12.8,34.85-5.37,4.3L59.14,7.19c.39-1.14.43-1.94.12-2.39-.31-.45-.96-.76-1.95-.91l-3.95-.59c-.39-.08-.59-.31-.59-.71v-1.24c0-.39.2-.59.59-.59h16.57c.39,0,.59.2.59.59v1.3c0,.35-.2.57-.59.65l-2.54.47c-.67.12-1.18.34-1.53.68-.35.33-.63.78-.83,1.33l-14.09,38.62c-.12.35-.37.53-.77.53h-3.3c-.35,0-.63-.18-.83-.53l-11.68-31.08,3.77-5.6-12.56,36.68c-.16.35-.41.53-.77.53h-3.36Z"/>
      <path class="cls-1" d="M93.46,45.7c-4.72,0-8.87-.95-12.44-2.86-3.58-1.91-6.37-4.58-8.37-8.02-2-3.44-3.01-7.42-3.01-11.94s1-8.55,3.01-11.97,4.8-6.09,8.37-8.02c3.58-1.93,7.72-2.89,12.44-2.89s8.99.95,12.59,2.86c3.6,1.91,6.4,4.57,8.4,7.99s3.01,7.41,3.01,11.97-.99,8.56-2.98,12c-1.99,3.44-4.78,6.11-8.37,8.02-3.6,1.91-7.81,2.86-12.65,2.86ZM93.4,40.27c2.75,0,5.13-.7,7.13-2.09,2-1.39,3.54-3.38,4.6-5.96,1.06-2.57,1.59-5.65,1.59-9.23s-.55-6.73-1.65-9.35c-1.1-2.61-2.65-4.64-4.66-6.07-2-1.43-4.38-2.15-7.14-2.15s-4.97.69-6.9,2.06c-1.93,1.38-3.41,3.35-4.45,5.93-1.04,2.57-1.56,5.67-1.56,9.29s.53,6.67,1.59,9.29c1.06,2.62,2.57,4.65,4.54,6.1,1.97,1.46,4.26,2.18,6.9,2.18Z"/>
      <path class="cls-1" d="M148.59,45.7c-4.72,0-8.87-.95-12.44-2.86-3.58-1.91-6.37-4.58-8.37-8.02-2-3.44-3.01-7.42-3.01-11.94s1-8.55,3.01-11.97,4.8-6.09,8.37-8.02c3.58-1.93,7.72-2.89,12.44-2.89s8.99.95,12.59,2.86c3.6,1.91,6.4,4.57,8.4,7.99s3.01,7.41,3.01,11.97-.99,8.56-2.98,12c-1.99,3.44-4.78,6.11-8.37,8.02-3.6,1.91-7.81,2.86-12.65,2.86ZM148.53,40.27c2.75,0,5.13-.7,7.13-2.09,2-1.39,3.54-3.38,4.6-5.96,1.06-2.57,1.59-5.65,1.59-9.23s-.55-6.73-1.65-9.35c-1.1-2.61-2.65-4.64-4.66-6.07-2-1.43-4.38-2.15-7.14-2.15s-4.97.69-6.9,2.06c-1.93,1.38-3.41,3.35-4.45,5.93-1.04,2.57-1.56,5.67-1.56,9.29s.53,6.67,1.59,9.29c1.06,2.62,2.57,4.65,4.54,6.1,1.97,1.46,4.26,2.18,6.9,2.18Z"/>
      <path class="cls-1" d="M177.84,1.36c0-.39.2-.59.59-.59h21.29c.39,0,.59.2.59.59v1.24c0,.35-.18.61-.53.77l-4.42,1.18c-.51.16-.87.35-1.06.59-.2.24-.29.71-.29,1.42v6.43h-9.97v-6.55c0-.59-.08-1.01-.24-1.27-.16-.25-.57-.48-1.24-.68l-4.13-1.12c-.39-.12-.59-.35-.59-.71v-1.3ZM178.43,44.93c-.39,0-.59-.2-.59-.59v-1.3c0-.35.2-.59.59-.71l4.13-1.12c.67-.24,1.08-.47,1.24-.71.16-.24.24-.65.24-1.24v-6.54h9.97v12.21h-15.57ZM184.03,44.93V.77h9.97v37.68c0,.71.14,1.19.41,1.44.27.26.71.38,1.3.38h11.56c.71,0,1.27-.13,1.68-.38.41-.25.78-.62,1.09-1.09l3.36-5.42c.24-.31.55-.41.94-.29l1.71.47c.35.12.51.37.47.77l-1.36,9.02c-.08.55-.21.97-.38,1.27-.18.29-.5.46-.97.5s-1.22.04-2.24,0l-3.36-.18h-24.18Z"/>
      <path class="cls-1" d="M235.27,1.36c0-.39.2-.59.59-.59h15.57v12.21h-9.97v-6.55c0-.59-.08-1.01-.24-1.27-.16-.25-.57-.48-1.24-.68l-4.13-1.12c-.39-.12-.59-.35-.59-.71v-1.3ZM235.86,44.93c-.39,0-.59-.2-.59-.59v-1.3c0-.35.2-.59.59-.71l4.13-1.12c.67-.24,1.08-.47,1.24-.71.16-.24.24-.65.24-1.24v-6.54h9.97v12.21h-15.57ZM241.46,44.93V.77h9.97v37.68c0,.71.14,1.19.41,1.44.27.26.71.38,1.3.38h3.18c3.03,0,5.26-.63,6.69-1.89,1.43-1.26,2.15-3.18,2.15-5.78s-.75-4.5-2.24-5.72c-1.49-1.22-3.83-1.83-7.02-1.83h-4.48v-4.66h4.48c2.4,0,4.23-.7,5.48-2.09,1.26-1.39,1.89-3.37,1.89-5.93,0-2.32-.58-4.06-1.74-5.22-1.16-1.16-2.9-1.74-5.22-1.74h-4.89V.77h4.89c5.62,0,9.82.92,12.59,2.77s4.16,4.66,4.16,8.43c0,1.77-.43,3.32-1.3,4.66-.87,1.34-1.95,2.45-3.24,3.33-1.3.88-2.63,1.53-4.01,1.95-1.38.41-2.59.62-3.66.62v-.88c.9,0,1.98.12,3.24.35,1.26.24,2.57.62,3.95,1.15,1.38.53,2.65,1.23,3.83,2.09,1.18.87,2.14,1.93,2.89,3.18.75,1.26,1.12,2.75,1.12,4.48,0,4.09-1.58,7.12-4.75,9.08-3.17,1.97-8.11,2.95-14.83,2.95h-14.86Z"/>
      <path class="cls-1" d="M278.55,1.36c0-.39.2-.59.59-.59h21.29c.39,0,.59.2.59.59v1.24c0,.35-.18.61-.53.77l-4.42,1.18c-.51.16-.87.35-1.06.59-.2.24-.29.71-.29,1.42v6.43h-9.96v-6.55c0-.59-.08-1.01-.24-1.27-.16-.25-.57-.48-1.24-.68l-4.13-1.12c-.39-.12-.59-.35-.59-.71v-1.3ZM322.48,28.66c0,5.42-1.65,9.62-4.95,12.59-3.3,2.97-8,4.45-14.09,4.45s-10.54-1.36-13.8-4.07c-3.26-2.71-4.89-6.56-4.89-11.56V.77h9.96v30.19c0,2.87.91,5.14,2.74,6.81,1.83,1.67,4.35,2.51,7.58,2.51s5.83-.95,7.69-2.86c1.87-1.91,2.8-4.53,2.8-7.87V.77h6.96v27.89ZM309.27,1.36c0-.39.2-.59.59-.59h18.4c.39,0,.59.2.59.59v1.24c0,.35-.18.61-.53.77l-4.42,1.18c-.55.16-.92.35-1.12.59-.2.24-.29.71-.29,1.42v6.43h-6.96v-6.55c0-.59-.08-1.01-.24-1.27-.16-.25-.57-.48-1.24-.68l-4.19-1.12c-.39-.12-.59-.35-.59-.71v-1.3Z"/>
      <path class="cls-1" d="M369.65.18c.55-.12.96-.14,1.24-.06.27.08.46.34.56.8.1.45.17,1.19.21,2.21l.29,9.91c0,.35-.2.55-.59.59l-1.71.24c-.35.08-.61-.08-.77-.47l-2.48-6.31c-.32-.63-.66-1.06-1.03-1.3-.37-.24-.85-.35-1.44-.35h-25.18c-.71,0-1.24.14-1.59.41-.35.28-.65.69-.88,1.24l-2.59,6.31c-.12.39-.39.55-.83.47l-1.65-.24c-.39-.08-.59-.29-.59-.65l.29-11.14c.04-.59.12-1.02.24-1.3.12-.27.41-.41.88-.41s1.2.08,2.18.24l1.53.18c1.57.04,3.1.08,4.6.12,1.49.04,3.1.07,4.84.09,1.73.02,3.77.03,6.13.03s4.37,0,6.16-.03c1.79-.02,3.43-.05,4.92-.09,1.49-.04,2.97-.08,4.42-.12l2.83-.35ZM340.7,44.93c-.39,0-.59-.2-.59-.59v-1.3c0-.35.2-.59.59-.71l4.13-1.12c.63-.24,1.03-.47,1.21-.71.18-.24.27-.65.27-1.24v-6.54h9.91v6.43c0,.71.11,1.18.32,1.42.22.24.58.43,1.09.59l4.42,1.18c.35.16.53.41.53.77v1.24c0,.39-.2.59-.59.59h-21.29ZM346.3,44.93V.77h9.91v44.17h-9.91Z"/>
      <path class="cls-1" d="M414.05.18c.55-.12.96-.14,1.24-.06.27.08.46.34.56.8.1.45.17,1.19.21,2.21l.29,9.91c0,.35-.2.55-.59.59l-1.71.24c-.35.08-.61-.08-.77-.47l-2.48-6.31c-.32-.63-.66-1.06-1.03-1.3-.37-.24-.85-.35-1.44-.35h-25.18c-.71,0-1.24.14-1.59.41-.35.28-.65.69-.88,1.24l-2.59,6.31c-.12.39-.39.55-.83.47l-1.65-.24c-.39-.08-.59-.29-.59-.65l.29-11.14c.04-.59.12-1.02.24-1.3.12-.27.41-.41.88-.41s1.2.08,2.18.24l1.53.18c1.57.04,3.1.08,4.6.12,1.49.04,3.1.07,4.84.09,1.73.02,3.77.03,6.13.03s4.37,0,6.16-.03c1.79-.02,3.43-.05,4.92-.09,1.49-.04,2.97-.08,4.42-.12l2.83-.35ZM385.1,44.93c-.39,0-.59-.2-.59-.59v-1.3c0-.35.2-.59.59-.71l4.13-1.12c.63-.24,1.03-.47,1.21-.71.18-.24.27-.65.27-1.24v-6.54h9.91v6.43c0,.71.11,1.18.32,1.42.22.24.58.43,1.09.59l4.42,1.18c.35.16.53.41.53.77v1.24c0,.39-.2.59-.59.59h-21.29ZM390.7,44.93V.77h9.91v44.17h-9.91Z"/>
      <path class="cls-1" d="M443.6,45.7c-4.72,0-8.87-.95-12.44-2.86-3.58-1.91-6.37-4.58-8.37-8.02-2-3.44-3.01-7.42-3.01-11.94s1-8.55,3.01-11.97,4.8-6.09,8.37-8.02c3.58-1.93,7.72-2.89,12.44-2.89s8.99.95,12.59,2.86c3.6,1.91,6.4,4.57,8.4,7.99s3.01,7.41,3.01,11.97-.99,8.56-2.98,12c-1.99,3.44-4.78,6.11-8.37,8.02-3.6,1.91-7.81,2.86-12.65,2.86ZM443.54,40.27c2.75,0,5.13-.7,7.13-2.09,2-1.39,3.54-3.38,4.6-5.96,1.06-2.57,1.59-5.65,1.59-9.23s-.55-6.73-1.65-9.35c-1.1-2.61-2.65-4.64-4.66-6.07-2-1.43-4.38-2.15-7.14-2.15s-4.97.69-6.9,2.06c-1.93,1.38-3.41,3.35-4.45,5.93-1.04,2.57-1.56,5.67-1.56,9.29s.53,6.67,1.59,9.29c1.06,2.62,2.57,4.65,4.54,6.1,1.97,1.46,4.26,2.18,6.9,2.18Z"/>
      <path class="cls-1" d="M516.54,4.54c-.55.16-.92.35-1.12.59-.2.24-.29.71-.29,1.42v38.09c0,.39-.2.59-.59.59h-3.07c-.39,0-.73-.16-1-.47l-30.07-36.38,4.66-4.66v35.56c0,.59.09,1,.27,1.24.18.24.58.47,1.21.71l4.07,1.06c.35.2.53.47.53.83v1.24c0,.39-.2.59-.59.59h-17.1c-.39,0-.59-.2-.59-.59v-1.3c0-.35.2-.59.59-.71l4.36-1.18c.51-.16.87-.35,1.09-.59.22-.24.32-.71.32-1.42V6.78c0-.71-.14-1.23-.41-1.56-.28-.33-.69-.58-1.24-.74l-4.19-1.12c-.35-.16-.53-.41-.53-.77v-1.24c0-.39.2-.59.59-.59h12.38c.39,0,.71.14.94.41l26.83,32.49-4.36,6.96V6.43c0-.59-.09-1.01-.27-1.27-.18-.25-.6-.48-1.27-.68l-3.95-1.06c-.35-.2-.53-.47-.53-.83v-1.24c0-.39.2-.59.59-.59h17.1c.35,0,.53.2.53.59v1.3c0,.35-.18.59-.53.71l-4.36,1.18Z"/>
    </g>
  </g>
</svg>