<?xml version="1.0" encoding="UTF-8"?>
<svg id="Layer_2" data-name="Layer 2" xmlns="http://www.w3.org/2000/svg" viewBox="0 0 399.2 57.47">
  <defs>
    <style>
      .cls-1 {
        fill: #090305;
      }
    </style>
  </defs>
  <g id="_레이어_1" data-name="레이어 1">
    <path class="cls-1" d="M71.59,2.69v-1.32c0-.4-.2-.6-.6-.6h-16.82c-.4,0-.6.2-.6.6v1.26c0,.4.2.64.6.72l4.01.6c1,.16,1.65.47,1.98.93.32.46.28,1.27-.12,2.42l-8.51,23.99L40.53,1.32c-.2-.36-.48-.54-.84-.54h-3.35c-.4,0-.66.18-.78.54l-10.13,30L16.52,7.12c-.32-1-.36-1.74-.12-2.21.24-.48.96-.82,2.15-1.02l3.59-.54c.4-.08.6-.3.6-.66v-1.32c0-.4-.18-.6-.54-.6H.6c-.4,0-.6.2-.6.6v1.26c0,.4.18.66.54.78l2.04.36c.56.16,1.04.39,1.44.69.4.3.72.77.96,1.41l16.04,39.21c.16.36.42.54.78.54h3.41c.36,0,.62-.18.78-.54l9.9-28.92,10.87,28.92c.2.36.48.54.84.54h3.35c.4,0,.66-.18.78-.54l14.31-39.21c.2-.56.48-1.01.84-1.35.36-.34.88-.57,1.56-.69l2.57-.48c.4-.08.6-.3.6-.66Z"/>
    <path class="cls-1" d="M82.22,43.49c3.65,1.94,7.87,2.9,12.66,2.9s9.19-.97,12.84-2.9c3.65-1.93,6.48-4.65,8.5-8.14,2.01-3.49,3.02-7.55,3.02-12.18s-1.01-8.63-3.02-12.12c-2.02-3.49-4.86-6.21-8.53-8.14-3.67-1.93-7.94-2.9-12.81-2.9s-9,.98-12.63,2.93c-3.63,1.96-6.46,4.67-8.5,8.14-2.04,3.47-3.05,7.5-3.05,12.09s1.01,8.69,3.02,12.18c2.02,3.49,4.85,6.21,8.5,8.14ZM83.17,13.62c1.06-2.61,2.56-4.62,4.52-6.02,1.95-1.4,4.29-2.09,7-2.09s5.21.73,7.24,2.18c2.04,1.46,3.61,3.52,4.73,6.2,1.12,2.67,1.68,5.83,1.68,9.46s-.54,6.75-1.62,9.37c-1.08,2.61-2.63,4.63-4.67,6.04-2.03,1.42-4.45,2.13-7.24,2.13s-5.01-.74-7-2.21c-2-1.48-3.53-3.54-4.61-6.2-1.08-2.65-1.62-5.8-1.62-9.43s.53-6.81,1.59-9.43Z"/>
    <path class="cls-1" d="M175.21,23.16c0-4.59-1.01-8.63-3.02-12.12-2.02-3.49-4.86-6.21-8.53-8.14-3.67-1.93-7.94-2.9-12.81-2.9s-9,.98-12.63,2.93c-3.63,1.96-6.46,4.67-8.5,8.14-2.04,3.47-3.05,7.5-3.05,12.09s1.01,8.69,3.02,12.18c2.02,3.49,4.85,6.21,8.5,8.14,3.65,1.94,7.87,2.9,12.66,2.9s9.19-.97,12.84-2.9c3.65-1.93,6.48-4.65,8.5-8.14,2.01-3.49,3.02-7.55,3.02-12.18ZM162.7,32.71c-1.08,2.61-2.63,4.63-4.67,6.04-2.03,1.42-4.45,2.13-7.24,2.13s-5.01-.74-7-2.21c-2-1.48-3.53-3.54-4.61-6.2-1.08-2.65-1.62-5.8-1.62-9.43s.53-6.81,1.59-9.43c1.06-2.61,2.56-4.62,4.52-6.02,1.95-1.4,4.29-2.09,7-2.09s5.21.73,7.24,2.18c2.04,1.46,3.61,3.52,4.73,6.2,1.12,2.67,1.68,5.83,1.68,9.46s-.54,6.75-1.62,9.37Z"/>
    <path class="cls-1" d="M217.05,45.79c.48-.04.81-.21.99-.51.18-.3.31-.73.39-1.29l1.38-9.16c.04-.4-.12-.66-.48-.78l-1.74-.48c-.4-.12-.72-.02-.96.3l-3.41,5.51c-.32.48-.69.85-1.11,1.11-.42.26-.99.39-1.71.39h-11.73c-.6,0-1.04-.13-1.32-.39-.28-.26-.42-.75-.42-1.47V6.64c0-.72.1-1.2.3-1.44.2-.24.56-.44,1.08-.6l4.49-1.2c.36-.16.54-.42.54-.78v-1.26c0-.4-.2-.6-.6-.6h-21.61c-.4,0-.6.2-.6.6v1.32c0,.36.2.6.6.72l4.19,1.14c.68.2,1.1.43,1.26.69.16.26.24.69.24,1.29v33.34c0,.6-.08,1.02-.24,1.26-.16.24-.58.48-1.26.72l-4.19,1.14c-.4.12-.6.36-.6.72v1.32c0,.4.2.6.6.6h30.23l3.41.18c1.04.04,1.8.04,2.27,0Z"/>
    <path class="cls-1" d="M239.79,13.17v-6.52c0-.72.1-1.2.3-1.44.2-.24.56-.44,1.08-.6l4.49-1.2c.36-.16.54-.42.54-.78v-1.26c0-.4-.2-.6-.6-.6h-21.61c-.4,0-.6.2-.6.6v1.32c0,.36.2.6.6.72l4.19,1.14c.68.2,1.1.43,1.26.69.16.26.24.69.24,1.29v33.34c0,.6-.08,1.02-.24,1.26-.16.24-.58.48-1.26.72l-4.19,1.14c-.4.12-.6.36-.6.72v1.32c0,.4.2.6.6.6h21.61c.4,0,.6-.2.6-.6v-1.26c0-.36-.18-.62-.54-.78l-4.49-1.2c-.52-.16-.88-.36-1.08-.6-.2-.24-.3-.72-.3-1.44V13.17Z"/>
    <path class="cls-1" d="M301.54,57.43c2.29.06,4.58.05,6.85-.03.4-.04.6-.24.6-.6v-1.56c0-.4-.2-.64-.6-.72-1-.2-1.98-.43-2.93-.69-.96-.26-1.92-.55-2.87-.87-.52-.2-1.02-.42-1.5-.66-.48-.24-1.02-.56-1.62-.96l-6.53-4.25c-1.08-.8-2.25-1.37-3.53-1.71-1.14-.3-2.38-.51-3.7-.66.98-.36,1.92-.78,2.83-1.26,3.65-1.93,6.48-4.65,8.5-8.14,2.01-3.49,3.02-7.55,3.02-12.18s-1.01-8.63-3.02-12.12c-2.02-3.49-4.86-6.21-8.53-8.14-3.67-1.93-7.94-2.9-12.81-2.9s-9,.98-12.63,2.93c-3.63,1.96-6.46,4.67-8.5,8.14-2.04,3.47-3.05,7.5-3.05,12.09s1.01,8.68,3.02,12.15c2.02,3.47,4.85,6.19,8.5,8.14,3.65,1.96,7.87,2.93,12.66,2.93.02,0,.04,0,.07,0h0c1.08,0,2.03.12,2.84.36.82.24,1.59.57,2.31.99.72.42,1.38.87,1.97,1.35l7.24,5.39c.8.64,1.42,1.11,1.86,1.41.44.3.86.52,1.26.66.4.14.88.25,1.44.33,2.27.32,4.56.51,6.85.57ZM275.65,40.88c-2.67,0-5.01-.74-7-2.21-2-1.48-3.53-3.54-4.61-6.2-1.08-2.65-1.62-5.8-1.62-9.43s.53-6.81,1.59-9.43c1.06-2.61,2.56-4.62,4.52-6.02,1.95-1.4,4.29-2.09,7-2.09s5.26.73,7.27,2.18c2.01,1.46,3.58,3.52,4.7,6.2,1.12,2.67,1.68,5.83,1.68,9.46s-.54,6.75-1.62,9.37c-1.08,2.61-2.63,4.63-4.67,6.04-2.03,1.42-4.45,2.13-7.24,2.13Z"/>
    <path class="cls-1" d="M354.36.78h-18.68c-.4,0-.6.2-.6.6v1.32c0,.36.2.6.6.72l4.25,1.14c.68.2,1.1.43,1.26.69.16.26.24.69.24,1.29v23.46c0,3.39-.95,6.06-2.84,7.99-1.9,1.94-4.5,2.9-7.81,2.9s-5.84-.85-7.69-2.54c-1.86-1.7-2.78-4-2.78-6.91V6.64c0-.72.1-1.2.3-1.44.2-.24.56-.44,1.08-.6l4.49-1.2c.36-.16.54-.42.54-.78v-1.26c0-.4-.2-.6-.6-.6h-21.61c-.4,0-.6.2-.6.6v1.32c0,.36.2.6.6.72l4.19,1.14c.68.2,1.1.43,1.26.69s.24.69.24,1.29v24c0,5.07,1.65,8.98,4.97,11.73,3.31,2.75,7.98,4.13,14.01,4.13s10.95-1.51,14.31-4.52c3.35-3.01,5.03-7.27,5.03-12.78V6.64c0-.72.1-1.2.3-1.44.2-.24.58-.44,1.14-.6l4.49-1.2c.36-.16.54-.42.54-.78v-1.26c0-.4-.2-.6-.6-.6Z"/>
    <path class="cls-1" d="M398.72,34.06l-1.8-.48c-.44-.12-.74-.02-.9.3l-3.71,5.57c-.36.48-.75.84-1.17,1.08s-.99.36-1.71.36h-13.53c-.6,0-1.04-.13-1.32-.39-.28-.26-.42-.75-.42-1.47v-13.59h11.79c.6,0,1.11.11,1.53.33.42.22.77.65,1.05,1.29l1.14,2.99c.2.36.48.54.84.54h1.68c.4,0,.6-.18.6-.54v-13.53c0-.4-.2-.6-.6-.6h-1.62c-.4,0-.7.18-.9.54l-1.2,2.63c-.24.52-.56.91-.96,1.17-.4.26-.96.39-1.68.39h-11.67V5.51h15.2c.56,0,1.05.12,1.47.36.42.24.81.66,1.17,1.26l2.69,5.09c.24.32.54.44.9.36l1.74-.24c.4-.08.6-.32.6-.72l-.24-8.14c0-1.08-.05-1.84-.15-2.27s-.28-.71-.54-.81c-.26-.1-.71-.13-1.35-.09l-4.91.48h-32.38c-.4,0-.6.2-.6.6v1.32c0,.36.2.6.6.72l4.19,1.14c.68.2,1.1.43,1.26.69.16.26.24.69.24,1.29v33.34c0,.6-.08,1.02-.24,1.26-.16.24-.58.48-1.26.72l-4.19,1.14c-.4.12-.6.36-.6.72v1.32c0,.4.2.6.6.6h32.14l3.65.18c1.04.04,1.78.04,2.24,0,.46-.04.78-.21.96-.51.18-.3.31-.73.39-1.29l1.44-9.16c.04-.4-.12-.66-.48-.78Z"/>
  </g>
</svg>